%
M48
M72
T01C0.02400
T02C0.03937
T03C0.04000
%
T01
X23124Y108470
X24249Y137720
X14124Y164720
X14124Y184970
X45624Y173720
X54624Y173720
X54624Y155720
X63624Y200720
X100749Y88220
X131124Y85970
X68124Y57845
T02
X22874Y30534
X22874Y54550
X41772Y42345
T03
X62874Y32345
X72874Y32345
X82874Y32345
X92874Y32345
X122874Y57345
X122874Y67345
X122874Y77345
X122874Y117345
X122874Y127345
X122874Y137345
X122874Y177345
X122874Y187345
X122874Y197345
M30
