G75*
%MOIN*%
%OFA0B0*%
%FSLAX25Y25*%
%IPPOS*%
%LPD*%
%AMOC8*
5,1,8,0,0,1.08239X$1,22.5*
%
%ADD10C,0.00000*%
%ADD11C,0.00400*%
%ADD12C,0.00500*%
%ADD13C,0.00600*%
%ADD14R,0.03000X0.42000*%
%ADD15R,0.02000X0.07500*%
%ADD16R,0.02000X0.03000*%
%ADD17C,0.00800*%
%ADD18C,0.00200*%
D10*
X0002874Y0017345D02*
X0002874Y0212306D01*
X0151575Y0212306D01*
X0151575Y0017345D01*
X0002874Y0017345D01*
D11*
X0008074Y0062545D02*
X0010376Y0062545D01*
X0011143Y0063312D01*
X0011143Y0066381D01*
X0010376Y0067149D01*
X0008074Y0067149D01*
X0008074Y0062545D01*
X0012678Y0063312D02*
X0013445Y0062545D01*
X0014980Y0062545D01*
X0015747Y0063312D01*
X0015747Y0066381D02*
X0014980Y0067149D01*
X0013445Y0067149D01*
X0012678Y0066381D01*
X0012678Y0063312D01*
X0015574Y0085045D02*
X0018643Y0085045D01*
X0017109Y0085045D02*
X0017109Y0089649D01*
X0015574Y0088114D01*
X0020178Y0088881D02*
X0020178Y0085812D01*
X0023247Y0088881D01*
X0023247Y0085812D01*
X0022480Y0085045D01*
X0020945Y0085045D01*
X0020178Y0085812D01*
X0020178Y0088881D02*
X0020945Y0089649D01*
X0022480Y0089649D01*
X0023247Y0088881D01*
X0024782Y0089649D02*
X0024782Y0085045D01*
X0024782Y0086580D02*
X0027084Y0088114D01*
X0024782Y0086580D02*
X0027084Y0085045D01*
X0026316Y0095045D02*
X0024782Y0095045D01*
X0025549Y0095045D02*
X0025549Y0099649D01*
X0024782Y0099649D02*
X0026316Y0099649D01*
X0027851Y0098881D02*
X0027851Y0095812D01*
X0028618Y0095045D01*
X0030153Y0095045D01*
X0030920Y0095812D01*
X0030920Y0098881D01*
X0030153Y0099649D01*
X0028618Y0099649D01*
X0027851Y0098881D01*
X0032455Y0098881D02*
X0033222Y0099649D01*
X0034757Y0099649D01*
X0035524Y0098881D01*
X0035524Y0098114D01*
X0032455Y0095045D01*
X0035524Y0095045D01*
X0023247Y0097347D02*
X0022480Y0096580D01*
X0020178Y0096580D01*
X0020178Y0095045D02*
X0020178Y0099649D01*
X0022480Y0099649D01*
X0023247Y0098881D01*
X0023247Y0097347D01*
X0018643Y0097347D02*
X0017109Y0097347D01*
X0018643Y0097347D02*
X0018643Y0095812D01*
X0017876Y0095045D01*
X0016341Y0095045D01*
X0015574Y0095812D01*
X0015574Y0098881D01*
X0016341Y0099649D01*
X0017876Y0099649D01*
X0018643Y0098881D01*
X0018643Y0110045D02*
X0015574Y0110045D01*
X0017109Y0110045D02*
X0017109Y0114649D01*
X0015574Y0113114D01*
X0020178Y0113881D02*
X0020178Y0110812D01*
X0023247Y0113881D01*
X0023247Y0110812D01*
X0022480Y0110045D01*
X0020945Y0110045D01*
X0020178Y0110812D01*
X0020178Y0113881D02*
X0020945Y0114649D01*
X0022480Y0114649D01*
X0023247Y0113881D01*
X0024782Y0114649D02*
X0024782Y0110045D01*
X0024782Y0111580D02*
X0027084Y0113114D01*
X0024782Y0111580D02*
X0027084Y0110045D01*
X0027851Y0119278D02*
X0024782Y0119278D01*
X0023247Y0120045D02*
X0023247Y0124649D01*
X0023247Y0122347D02*
X0020178Y0122347D01*
X0018643Y0123881D02*
X0017876Y0124649D01*
X0016341Y0124649D01*
X0015574Y0123881D01*
X0015574Y0120812D01*
X0016341Y0120045D01*
X0017876Y0120045D01*
X0018643Y0120812D01*
X0020178Y0120045D02*
X0020178Y0124649D01*
X0029386Y0124649D02*
X0029386Y0120045D01*
X0029386Y0121580D02*
X0031688Y0121580D01*
X0032455Y0122347D01*
X0032455Y0123881D01*
X0031688Y0124649D01*
X0029386Y0124649D01*
X0033990Y0124649D02*
X0033990Y0120045D01*
X0036292Y0120045D01*
X0037059Y0120812D01*
X0037059Y0123881D01*
X0036292Y0124649D01*
X0033990Y0124649D01*
X0044485Y0118881D02*
X0044485Y0115812D01*
X0045252Y0115045D01*
X0046787Y0115045D01*
X0047554Y0115812D01*
X0047554Y0117347D01*
X0046020Y0117347D01*
X0047554Y0118881D02*
X0046787Y0119649D01*
X0045252Y0119649D01*
X0044485Y0118881D01*
X0049089Y0119649D02*
X0049089Y0115045D01*
X0049089Y0116580D02*
X0051391Y0116580D01*
X0052158Y0117347D01*
X0052158Y0118881D01*
X0051391Y0119649D01*
X0049089Y0119649D01*
X0053693Y0119649D02*
X0055228Y0119649D01*
X0054460Y0119649D02*
X0054460Y0115045D01*
X0053693Y0115045D02*
X0055228Y0115045D01*
X0056762Y0115812D02*
X0056762Y0118881D01*
X0057529Y0119649D01*
X0059064Y0119649D01*
X0059831Y0118881D01*
X0059831Y0115812D01*
X0059064Y0115045D01*
X0057529Y0115045D01*
X0056762Y0115812D01*
X0061366Y0115045D02*
X0064435Y0115045D01*
X0062901Y0115045D02*
X0062901Y0119649D01*
X0061366Y0118114D01*
X0065970Y0117347D02*
X0067505Y0118114D01*
X0068272Y0118114D01*
X0069039Y0117347D01*
X0069039Y0115812D01*
X0068272Y0115045D01*
X0066737Y0115045D01*
X0065970Y0115812D01*
X0065970Y0117347D02*
X0065970Y0119649D01*
X0069039Y0119649D01*
X0069039Y0125045D02*
X0066737Y0126580D01*
X0069039Y0128114D01*
X0066737Y0129649D02*
X0066737Y0125045D01*
X0065203Y0125812D02*
X0064435Y0125045D01*
X0062901Y0125045D01*
X0062133Y0125812D01*
X0065203Y0128881D01*
X0065203Y0125812D01*
X0065203Y0128881D02*
X0064435Y0129649D01*
X0062901Y0129649D01*
X0062133Y0128881D01*
X0062133Y0125812D01*
X0060599Y0125045D02*
X0057530Y0125045D01*
X0059064Y0125045D02*
X0059064Y0129649D01*
X0057530Y0128114D01*
X0057876Y0109649D02*
X0055574Y0109649D01*
X0055574Y0105045D01*
X0055574Y0106580D02*
X0057876Y0106580D01*
X0058643Y0107347D01*
X0058643Y0108881D01*
X0057876Y0109649D01*
X0060178Y0109649D02*
X0060178Y0105045D01*
X0061713Y0106580D01*
X0063247Y0105045D01*
X0063247Y0109649D01*
X0064782Y0109649D02*
X0066316Y0108114D01*
X0067851Y0109649D01*
X0067851Y0105045D01*
X0069386Y0105812D02*
X0070153Y0105045D01*
X0071688Y0105045D01*
X0072455Y0105812D01*
X0072455Y0106580D01*
X0071688Y0107347D01*
X0070920Y0107347D01*
X0071688Y0107347D02*
X0072455Y0108114D01*
X0072455Y0108881D01*
X0071688Y0109649D01*
X0070153Y0109649D01*
X0069386Y0108881D01*
X0064782Y0109649D02*
X0064782Y0105045D01*
X0064782Y0099649D02*
X0064782Y0095045D01*
X0064782Y0096580D02*
X0067084Y0098114D01*
X0064782Y0096580D02*
X0067084Y0095045D01*
X0067851Y0089649D02*
X0067851Y0085045D01*
X0069386Y0085045D02*
X0072455Y0085045D01*
X0070920Y0085045D02*
X0070920Y0089649D01*
X0069386Y0088114D01*
X0067851Y0089649D02*
X0066316Y0088114D01*
X0064782Y0089649D01*
X0064782Y0085045D01*
X0063247Y0085045D02*
X0063247Y0089649D01*
X0061713Y0086580D02*
X0063247Y0085045D01*
X0061713Y0086580D02*
X0060178Y0085045D01*
X0060178Y0089649D01*
X0058643Y0088881D02*
X0058643Y0087347D01*
X0057876Y0086580D01*
X0055574Y0086580D01*
X0055574Y0085045D02*
X0055574Y0089649D01*
X0057876Y0089649D01*
X0058643Y0088881D01*
X0058643Y0095045D02*
X0055574Y0095045D01*
X0057109Y0095045D02*
X0057109Y0099649D01*
X0055574Y0098114D01*
X0060178Y0098881D02*
X0060178Y0095812D01*
X0063247Y0098881D01*
X0063247Y0095812D01*
X0062480Y0095045D01*
X0060945Y0095045D01*
X0060178Y0095812D01*
X0060178Y0098881D02*
X0060945Y0099649D01*
X0062480Y0099649D01*
X0063247Y0098881D01*
X0062480Y0079649D02*
X0060945Y0079649D01*
X0060178Y0078881D01*
X0060178Y0075812D01*
X0063247Y0078881D01*
X0063247Y0075812D01*
X0062480Y0075045D01*
X0060945Y0075045D01*
X0060178Y0075812D01*
X0058643Y0075045D02*
X0055574Y0075045D01*
X0057109Y0075045D02*
X0057109Y0079649D01*
X0055574Y0078114D01*
X0062480Y0079649D02*
X0063247Y0078881D01*
X0064782Y0079649D02*
X0064782Y0075045D01*
X0064782Y0076580D02*
X0067084Y0078114D01*
X0064782Y0076580D02*
X0067084Y0075045D01*
X0067851Y0064649D02*
X0066316Y0063114D01*
X0064782Y0064649D01*
X0064782Y0060045D01*
X0063247Y0060045D02*
X0063247Y0064649D01*
X0061713Y0061580D02*
X0063247Y0060045D01*
X0061713Y0061580D02*
X0060178Y0060045D01*
X0060178Y0064649D01*
X0058643Y0063881D02*
X0058643Y0062347D01*
X0057876Y0061580D01*
X0055574Y0061580D01*
X0055574Y0060045D02*
X0055574Y0064649D01*
X0057876Y0064649D01*
X0058643Y0063881D01*
X0057109Y0054649D02*
X0057109Y0050045D01*
X0058643Y0050045D02*
X0055574Y0050045D01*
X0055574Y0053114D02*
X0057109Y0054649D01*
X0060178Y0053881D02*
X0060178Y0050812D01*
X0063247Y0053881D01*
X0063247Y0050812D01*
X0062480Y0050045D01*
X0060945Y0050045D01*
X0060178Y0050812D01*
X0060178Y0053881D02*
X0060945Y0054649D01*
X0062480Y0054649D01*
X0063247Y0053881D01*
X0064782Y0054649D02*
X0064782Y0050045D01*
X0064782Y0051580D02*
X0067084Y0053114D01*
X0064782Y0051580D02*
X0067084Y0050045D01*
X0067851Y0060045D02*
X0067851Y0064649D01*
X0069386Y0063881D02*
X0070153Y0064649D01*
X0071688Y0064649D01*
X0072455Y0063881D01*
X0072455Y0063114D01*
X0069386Y0060045D01*
X0072455Y0060045D01*
X0069584Y0024649D02*
X0067282Y0024649D01*
X0067282Y0020045D01*
X0069584Y0020045D01*
X0070351Y0020812D01*
X0070351Y0021580D01*
X0069584Y0022347D01*
X0067282Y0022347D01*
X0065747Y0022347D02*
X0065747Y0020812D01*
X0064980Y0020045D01*
X0063445Y0020045D01*
X0062678Y0020812D01*
X0062678Y0023881D01*
X0063445Y0024649D01*
X0064980Y0024649D01*
X0065747Y0023881D01*
X0065747Y0022347D02*
X0064213Y0022347D01*
X0061143Y0022347D02*
X0060376Y0021580D01*
X0058074Y0021580D01*
X0059609Y0021580D02*
X0061143Y0020045D01*
X0061143Y0022347D02*
X0061143Y0023881D01*
X0060376Y0024649D01*
X0058074Y0024649D01*
X0058074Y0020045D01*
X0069584Y0022347D02*
X0070351Y0023114D01*
X0070351Y0023881D01*
X0069584Y0024649D01*
X0042359Y0145419D02*
X0037755Y0145419D01*
X0037755Y0148488D01*
X0038522Y0150023D02*
X0039290Y0150023D01*
X0040057Y0150790D01*
X0040057Y0152325D01*
X0040824Y0153092D01*
X0041592Y0153092D01*
X0042359Y0152325D01*
X0042359Y0150790D01*
X0041592Y0150023D01*
X0042359Y0148488D02*
X0042359Y0145419D01*
X0040057Y0145419D02*
X0040057Y0146954D01*
X0038522Y0150023D02*
X0037755Y0150790D01*
X0037755Y0152325D01*
X0038522Y0153092D01*
X0037755Y0154627D02*
X0037755Y0156929D01*
X0038522Y0157696D01*
X0040057Y0157696D01*
X0040824Y0156929D01*
X0040824Y0154627D01*
X0042359Y0154627D02*
X0037755Y0154627D01*
X0040057Y0159231D02*
X0040057Y0162300D01*
X0039290Y0163835D02*
X0037755Y0165369D01*
X0042359Y0165369D01*
X0042359Y0163835D02*
X0042359Y0166904D01*
X0042359Y0168439D02*
X0039290Y0171508D01*
X0038522Y0171508D01*
X0037755Y0170740D01*
X0037755Y0169206D01*
X0038522Y0168439D01*
X0042359Y0168439D02*
X0042359Y0171508D01*
D12*
X0022874Y0137345D02*
X0022874Y0232227D01*
X0086654Y0232227D01*
X0086654Y0137345D01*
X0022874Y0137345D01*
X0059325Y0043548D02*
X0059325Y0040546D01*
X0057824Y0042047D02*
X0060827Y0042047D01*
X0131920Y0047595D02*
X0131920Y0049096D01*
X0131920Y0048346D02*
X0136424Y0048346D01*
X0136424Y0049096D02*
X0136424Y0047595D01*
X0136424Y0050664D02*
X0131920Y0050664D01*
X0131920Y0052916D01*
X0132671Y0053667D01*
X0134172Y0053667D01*
X0134923Y0052916D01*
X0134923Y0050664D01*
X0134923Y0052165D02*
X0136424Y0053667D01*
X0136424Y0055268D02*
X0136424Y0058271D01*
X0136424Y0059872D02*
X0135673Y0059872D01*
X0132671Y0062875D01*
X0131920Y0062875D01*
X0131920Y0059872D01*
X0131920Y0055268D02*
X0136424Y0055268D01*
X0136424Y0059872D02*
X0136424Y0062875D01*
X0134172Y0064476D02*
X0134172Y0067478D01*
X0134172Y0069080D02*
X0134172Y0072082D01*
X0131920Y0071332D02*
X0134172Y0069080D01*
X0136424Y0071332D02*
X0131920Y0071332D01*
X0131920Y0073684D02*
X0136424Y0076686D01*
X0131920Y0076686D01*
X0134172Y0078288D02*
X0134172Y0081290D01*
X0132671Y0082892D02*
X0135673Y0082892D01*
X0136424Y0083642D01*
X0136424Y0085144D01*
X0135673Y0085894D01*
X0134172Y0085894D01*
X0134172Y0084393D01*
X0132671Y0085894D02*
X0131920Y0085144D01*
X0131920Y0083642D01*
X0132671Y0082892D01*
X0131920Y0073684D02*
X0136424Y0073684D01*
X0136424Y0066728D02*
X0131920Y0066728D01*
X0134172Y0064476D01*
X0131920Y0107595D02*
X0131920Y0109096D01*
X0131920Y0108346D02*
X0136424Y0108346D01*
X0136424Y0109096D02*
X0136424Y0107595D01*
X0136424Y0110664D02*
X0131920Y0110664D01*
X0131920Y0112916D01*
X0132671Y0113667D01*
X0134172Y0113667D01*
X0134923Y0112916D01*
X0134923Y0110664D01*
X0134923Y0112165D02*
X0136424Y0113667D01*
X0136424Y0115268D02*
X0136424Y0118271D01*
X0136424Y0119872D02*
X0135673Y0119872D01*
X0132671Y0122875D01*
X0131920Y0122875D01*
X0131920Y0119872D01*
X0131920Y0115268D02*
X0136424Y0115268D01*
X0136424Y0119872D02*
X0136424Y0122875D01*
X0134172Y0124476D02*
X0134172Y0127478D01*
X0134172Y0129080D02*
X0134172Y0132082D01*
X0131920Y0131332D02*
X0134172Y0129080D01*
X0136424Y0131332D02*
X0131920Y0131332D01*
X0131920Y0133684D02*
X0136424Y0136686D01*
X0131920Y0136686D01*
X0134172Y0138288D02*
X0134172Y0141290D01*
X0134923Y0142892D02*
X0134923Y0145144D01*
X0134172Y0145894D01*
X0132671Y0145894D01*
X0131920Y0145144D01*
X0131920Y0142892D01*
X0136424Y0142892D01*
X0134923Y0144393D02*
X0136424Y0145894D01*
X0136424Y0133684D02*
X0131920Y0133684D01*
X0131920Y0126728D02*
X0134172Y0124476D01*
X0136424Y0126728D02*
X0131920Y0126728D01*
X0131920Y0167595D02*
X0131920Y0169096D01*
X0131920Y0168346D02*
X0136424Y0168346D01*
X0136424Y0169096D02*
X0136424Y0167595D01*
X0136424Y0170664D02*
X0131920Y0170664D01*
X0131920Y0172916D01*
X0132671Y0173667D01*
X0134172Y0173667D01*
X0134923Y0172916D01*
X0134923Y0170664D01*
X0134923Y0172165D02*
X0136424Y0173667D01*
X0136424Y0175268D02*
X0136424Y0178271D01*
X0136424Y0179872D02*
X0135673Y0179872D01*
X0132671Y0182875D01*
X0131920Y0182875D01*
X0131920Y0179872D01*
X0131920Y0175268D02*
X0136424Y0175268D01*
X0136424Y0179872D02*
X0136424Y0182875D01*
X0136424Y0186728D02*
X0131920Y0186728D01*
X0134172Y0184476D01*
X0134172Y0187478D01*
X0134172Y0189080D02*
X0134172Y0192082D01*
X0131920Y0191332D02*
X0134172Y0189080D01*
X0136424Y0191332D02*
X0131920Y0191332D01*
X0131920Y0193684D02*
X0136424Y0196686D01*
X0131920Y0196686D01*
X0134172Y0198288D02*
X0134172Y0201290D01*
X0134172Y0202892D02*
X0134172Y0205144D01*
X0134923Y0205894D01*
X0135673Y0205894D01*
X0136424Y0205144D01*
X0136424Y0202892D01*
X0131920Y0202892D01*
X0131920Y0205144D01*
X0132671Y0205894D01*
X0133421Y0205894D01*
X0134172Y0205144D01*
X0136424Y0193684D02*
X0131920Y0193684D01*
D13*
X0129874Y0205845D02*
X0129874Y0168845D01*
X0128874Y0167845D01*
X0117374Y0167345D01*
X0126474Y0169645D02*
X0126476Y0169708D01*
X0126482Y0169770D01*
X0126492Y0169832D01*
X0126505Y0169894D01*
X0126523Y0169954D01*
X0126544Y0170013D01*
X0126569Y0170071D01*
X0126598Y0170127D01*
X0126630Y0170181D01*
X0126665Y0170233D01*
X0126703Y0170282D01*
X0126745Y0170330D01*
X0126789Y0170374D01*
X0126837Y0170416D01*
X0126886Y0170454D01*
X0126938Y0170489D01*
X0126992Y0170521D01*
X0127048Y0170550D01*
X0127106Y0170575D01*
X0127165Y0170596D01*
X0127225Y0170614D01*
X0127287Y0170627D01*
X0127349Y0170637D01*
X0127411Y0170643D01*
X0127474Y0170645D01*
X0127537Y0170643D01*
X0127599Y0170637D01*
X0127661Y0170627D01*
X0127723Y0170614D01*
X0127783Y0170596D01*
X0127842Y0170575D01*
X0127900Y0170550D01*
X0127956Y0170521D01*
X0128010Y0170489D01*
X0128062Y0170454D01*
X0128111Y0170416D01*
X0128159Y0170374D01*
X0128203Y0170330D01*
X0128245Y0170282D01*
X0128283Y0170233D01*
X0128318Y0170181D01*
X0128350Y0170127D01*
X0128379Y0170071D01*
X0128404Y0170013D01*
X0128425Y0169954D01*
X0128443Y0169894D01*
X0128456Y0169832D01*
X0128466Y0169770D01*
X0128472Y0169708D01*
X0128474Y0169645D01*
X0128472Y0169582D01*
X0128466Y0169520D01*
X0128456Y0169458D01*
X0128443Y0169396D01*
X0128425Y0169336D01*
X0128404Y0169277D01*
X0128379Y0169219D01*
X0128350Y0169163D01*
X0128318Y0169109D01*
X0128283Y0169057D01*
X0128245Y0169008D01*
X0128203Y0168960D01*
X0128159Y0168916D01*
X0128111Y0168874D01*
X0128062Y0168836D01*
X0128010Y0168801D01*
X0127956Y0168769D01*
X0127900Y0168740D01*
X0127842Y0168715D01*
X0127783Y0168694D01*
X0127723Y0168676D01*
X0127661Y0168663D01*
X0127599Y0168653D01*
X0127537Y0168647D01*
X0127474Y0168645D01*
X0127411Y0168647D01*
X0127349Y0168653D01*
X0127287Y0168663D01*
X0127225Y0168676D01*
X0127165Y0168694D01*
X0127106Y0168715D01*
X0127048Y0168740D01*
X0126992Y0168769D01*
X0126938Y0168801D01*
X0126886Y0168836D01*
X0126837Y0168874D01*
X0126789Y0168916D01*
X0126745Y0168960D01*
X0126703Y0169008D01*
X0126665Y0169057D01*
X0126630Y0169109D01*
X0126598Y0169163D01*
X0126569Y0169219D01*
X0126544Y0169277D01*
X0126523Y0169336D01*
X0126505Y0169396D01*
X0126492Y0169458D01*
X0126482Y0169520D01*
X0126476Y0169582D01*
X0126474Y0169645D01*
X0128874Y0146845D02*
X0117374Y0147345D01*
X0128874Y0146845D02*
X0129874Y0145845D01*
X0129874Y0108845D01*
X0128874Y0107845D01*
X0117374Y0107345D01*
X0126474Y0109645D02*
X0126476Y0109708D01*
X0126482Y0109770D01*
X0126492Y0109832D01*
X0126505Y0109894D01*
X0126523Y0109954D01*
X0126544Y0110013D01*
X0126569Y0110071D01*
X0126598Y0110127D01*
X0126630Y0110181D01*
X0126665Y0110233D01*
X0126703Y0110282D01*
X0126745Y0110330D01*
X0126789Y0110374D01*
X0126837Y0110416D01*
X0126886Y0110454D01*
X0126938Y0110489D01*
X0126992Y0110521D01*
X0127048Y0110550D01*
X0127106Y0110575D01*
X0127165Y0110596D01*
X0127225Y0110614D01*
X0127287Y0110627D01*
X0127349Y0110637D01*
X0127411Y0110643D01*
X0127474Y0110645D01*
X0127537Y0110643D01*
X0127599Y0110637D01*
X0127661Y0110627D01*
X0127723Y0110614D01*
X0127783Y0110596D01*
X0127842Y0110575D01*
X0127900Y0110550D01*
X0127956Y0110521D01*
X0128010Y0110489D01*
X0128062Y0110454D01*
X0128111Y0110416D01*
X0128159Y0110374D01*
X0128203Y0110330D01*
X0128245Y0110282D01*
X0128283Y0110233D01*
X0128318Y0110181D01*
X0128350Y0110127D01*
X0128379Y0110071D01*
X0128404Y0110013D01*
X0128425Y0109954D01*
X0128443Y0109894D01*
X0128456Y0109832D01*
X0128466Y0109770D01*
X0128472Y0109708D01*
X0128474Y0109645D01*
X0128472Y0109582D01*
X0128466Y0109520D01*
X0128456Y0109458D01*
X0128443Y0109396D01*
X0128425Y0109336D01*
X0128404Y0109277D01*
X0128379Y0109219D01*
X0128350Y0109163D01*
X0128318Y0109109D01*
X0128283Y0109057D01*
X0128245Y0109008D01*
X0128203Y0108960D01*
X0128159Y0108916D01*
X0128111Y0108874D01*
X0128062Y0108836D01*
X0128010Y0108801D01*
X0127956Y0108769D01*
X0127900Y0108740D01*
X0127842Y0108715D01*
X0127783Y0108694D01*
X0127723Y0108676D01*
X0127661Y0108663D01*
X0127599Y0108653D01*
X0127537Y0108647D01*
X0127474Y0108645D01*
X0127411Y0108647D01*
X0127349Y0108653D01*
X0127287Y0108663D01*
X0127225Y0108676D01*
X0127165Y0108694D01*
X0127106Y0108715D01*
X0127048Y0108740D01*
X0126992Y0108769D01*
X0126938Y0108801D01*
X0126886Y0108836D01*
X0126837Y0108874D01*
X0126789Y0108916D01*
X0126745Y0108960D01*
X0126703Y0109008D01*
X0126665Y0109057D01*
X0126630Y0109109D01*
X0126598Y0109163D01*
X0126569Y0109219D01*
X0126544Y0109277D01*
X0126523Y0109336D01*
X0126505Y0109396D01*
X0126492Y0109458D01*
X0126482Y0109520D01*
X0126476Y0109582D01*
X0126474Y0109645D01*
X0128874Y0086845D02*
X0117374Y0087345D01*
X0128874Y0086845D02*
X0129874Y0085845D01*
X0129874Y0048845D01*
X0128874Y0047845D01*
X0117374Y0047345D01*
X0126474Y0049645D02*
X0126476Y0049708D01*
X0126482Y0049770D01*
X0126492Y0049832D01*
X0126505Y0049894D01*
X0126523Y0049954D01*
X0126544Y0050013D01*
X0126569Y0050071D01*
X0126598Y0050127D01*
X0126630Y0050181D01*
X0126665Y0050233D01*
X0126703Y0050282D01*
X0126745Y0050330D01*
X0126789Y0050374D01*
X0126837Y0050416D01*
X0126886Y0050454D01*
X0126938Y0050489D01*
X0126992Y0050521D01*
X0127048Y0050550D01*
X0127106Y0050575D01*
X0127165Y0050596D01*
X0127225Y0050614D01*
X0127287Y0050627D01*
X0127349Y0050637D01*
X0127411Y0050643D01*
X0127474Y0050645D01*
X0127537Y0050643D01*
X0127599Y0050637D01*
X0127661Y0050627D01*
X0127723Y0050614D01*
X0127783Y0050596D01*
X0127842Y0050575D01*
X0127900Y0050550D01*
X0127956Y0050521D01*
X0128010Y0050489D01*
X0128062Y0050454D01*
X0128111Y0050416D01*
X0128159Y0050374D01*
X0128203Y0050330D01*
X0128245Y0050282D01*
X0128283Y0050233D01*
X0128318Y0050181D01*
X0128350Y0050127D01*
X0128379Y0050071D01*
X0128404Y0050013D01*
X0128425Y0049954D01*
X0128443Y0049894D01*
X0128456Y0049832D01*
X0128466Y0049770D01*
X0128472Y0049708D01*
X0128474Y0049645D01*
X0128472Y0049582D01*
X0128466Y0049520D01*
X0128456Y0049458D01*
X0128443Y0049396D01*
X0128425Y0049336D01*
X0128404Y0049277D01*
X0128379Y0049219D01*
X0128350Y0049163D01*
X0128318Y0049109D01*
X0128283Y0049057D01*
X0128245Y0049008D01*
X0128203Y0048960D01*
X0128159Y0048916D01*
X0128111Y0048874D01*
X0128062Y0048836D01*
X0128010Y0048801D01*
X0127956Y0048769D01*
X0127900Y0048740D01*
X0127842Y0048715D01*
X0127783Y0048694D01*
X0127723Y0048676D01*
X0127661Y0048663D01*
X0127599Y0048653D01*
X0127537Y0048647D01*
X0127474Y0048645D01*
X0127411Y0048647D01*
X0127349Y0048653D01*
X0127287Y0048663D01*
X0127225Y0048676D01*
X0127165Y0048694D01*
X0127106Y0048715D01*
X0127048Y0048740D01*
X0126992Y0048769D01*
X0126938Y0048801D01*
X0126886Y0048836D01*
X0126837Y0048874D01*
X0126789Y0048916D01*
X0126745Y0048960D01*
X0126703Y0049008D01*
X0126665Y0049057D01*
X0126630Y0049109D01*
X0126598Y0049163D01*
X0126569Y0049219D01*
X0126544Y0049277D01*
X0126523Y0049336D01*
X0126505Y0049396D01*
X0126492Y0049458D01*
X0126482Y0049520D01*
X0126476Y0049582D01*
X0126474Y0049645D01*
X0097874Y0034845D02*
X0097874Y0029845D01*
X0095374Y0027345D01*
X0090374Y0027345D01*
X0087874Y0029845D01*
X0085374Y0027345D01*
X0080374Y0027345D01*
X0077874Y0029845D01*
X0075374Y0027345D01*
X0070374Y0027345D01*
X0067874Y0029845D01*
X0065374Y0027345D01*
X0060374Y0027345D01*
X0057874Y0029845D01*
X0057874Y0034845D01*
X0060374Y0037345D01*
X0065374Y0037345D01*
X0067874Y0034845D01*
X0070374Y0037345D01*
X0075374Y0037345D01*
X0077874Y0034845D01*
X0077874Y0029845D01*
X0077874Y0034845D02*
X0080374Y0037345D01*
X0085374Y0037345D01*
X0087874Y0034845D01*
X0090374Y0037345D01*
X0095374Y0037345D01*
X0097874Y0034845D01*
X0094377Y0040645D02*
X0095444Y0041712D01*
X0095444Y0043848D01*
X0093309Y0043848D01*
X0095444Y0045983D02*
X0094377Y0047050D01*
X0092242Y0047050D01*
X0091174Y0045983D01*
X0091174Y0041712D01*
X0092242Y0040645D01*
X0094377Y0040645D01*
X0087874Y0034845D02*
X0087874Y0029845D01*
X0085444Y0040645D02*
X0083309Y0042780D01*
X0084377Y0042780D02*
X0081174Y0042780D01*
X0081174Y0040645D02*
X0081174Y0047050D01*
X0084377Y0047050D01*
X0085444Y0045983D01*
X0085444Y0043848D01*
X0084377Y0042780D01*
X0075444Y0042780D02*
X0075444Y0041712D01*
X0074377Y0040645D01*
X0071174Y0040645D01*
X0071174Y0047050D01*
X0074377Y0047050D01*
X0075444Y0045983D01*
X0075444Y0044915D01*
X0074377Y0043848D01*
X0071174Y0043848D01*
X0074377Y0043848D02*
X0075444Y0042780D01*
X0067874Y0034845D02*
X0067874Y0029845D01*
X0034335Y0063780D02*
X0034335Y0068050D01*
X0034335Y0063780D02*
X0032200Y0061645D01*
X0030065Y0063780D01*
X0030065Y0068050D01*
X0027890Y0066983D02*
X0026822Y0068050D01*
X0024687Y0068050D01*
X0023620Y0066983D01*
X0027890Y0065915D02*
X0023620Y0061645D01*
X0027890Y0061645D01*
X0027890Y0065915D02*
X0027890Y0066983D01*
X0021444Y0061645D02*
X0017174Y0061645D01*
X0019309Y0061645D02*
X0019309Y0068050D01*
X0017174Y0065915D01*
X0016242Y0043050D02*
X0015174Y0041983D01*
X0015174Y0037712D01*
X0016242Y0036645D01*
X0018377Y0036645D01*
X0019444Y0037712D01*
X0019444Y0039848D01*
X0017309Y0039848D01*
X0019444Y0041983D02*
X0018377Y0043050D01*
X0016242Y0043050D01*
X0021620Y0043050D02*
X0021620Y0036645D01*
X0025890Y0036645D02*
X0021620Y0043050D01*
X0025890Y0043050D02*
X0025890Y0036645D01*
X0028065Y0036645D02*
X0031268Y0036645D01*
X0032335Y0037712D01*
X0032335Y0041983D01*
X0031268Y0043050D01*
X0028065Y0043050D01*
X0028065Y0036645D01*
X0117374Y0207345D02*
X0128874Y0206845D01*
X0129874Y0205845D01*
D14*
X0114374Y0187345D03*
X0114374Y0127345D03*
X0114374Y0067345D03*
D15*
X0116874Y0050095D03*
X0116874Y0084595D03*
X0116874Y0110095D03*
X0116874Y0144595D03*
X0116874Y0170095D03*
X0116874Y0204595D03*
D16*
X0116874Y0192345D03*
X0116874Y0182345D03*
X0116874Y0132345D03*
X0116874Y0122345D03*
X0116874Y0072345D03*
X0116874Y0062345D03*
D17*
X0005945Y0057699D02*
X0005945Y0001400D01*
X0039803Y0001400D01*
X0039803Y0032699D01*
X0039803Y0051400D02*
X0039803Y0057699D01*
X0033504Y0057699D01*
X0012244Y0057699D02*
X0005945Y0057699D01*
X0006969Y0175534D02*
X0008543Y0175534D01*
X0006969Y0175534D02*
X0006907Y0175536D01*
X0006846Y0175542D01*
X0006785Y0175551D01*
X0006724Y0175565D01*
X0006665Y0175582D01*
X0006607Y0175603D01*
X0006550Y0175628D01*
X0006495Y0175656D01*
X0006442Y0175687D01*
X0006391Y0175722D01*
X0006342Y0175760D01*
X0006295Y0175801D01*
X0006252Y0175844D01*
X0006211Y0175891D01*
X0006173Y0175940D01*
X0006138Y0175991D01*
X0006107Y0176044D01*
X0006079Y0176099D01*
X0006054Y0176156D01*
X0006033Y0176214D01*
X0006016Y0176273D01*
X0006002Y0176334D01*
X0005993Y0176395D01*
X0005987Y0176456D01*
X0005985Y0176518D01*
X0005984Y0176518D02*
X0005984Y0198172D01*
X0005985Y0198172D02*
X0005987Y0198234D01*
X0005993Y0198295D01*
X0006002Y0198356D01*
X0006016Y0198417D01*
X0006033Y0198476D01*
X0006054Y0198534D01*
X0006079Y0198591D01*
X0006107Y0198646D01*
X0006138Y0198699D01*
X0006173Y0198750D01*
X0006211Y0198799D01*
X0006252Y0198846D01*
X0006295Y0198889D01*
X0006342Y0198930D01*
X0006391Y0198968D01*
X0006442Y0199003D01*
X0006495Y0199034D01*
X0006550Y0199062D01*
X0006607Y0199087D01*
X0006665Y0199108D01*
X0006724Y0199125D01*
X0006785Y0199139D01*
X0006846Y0199148D01*
X0006907Y0199154D01*
X0006969Y0199156D01*
X0008543Y0199156D01*
X0009921Y0193250D02*
X0015827Y0193250D01*
X0015827Y0181439D01*
X0009921Y0181439D01*
X0009921Y0193250D01*
X0017205Y0199156D02*
X0018780Y0199156D01*
X0018842Y0199154D01*
X0018903Y0199148D01*
X0018964Y0199139D01*
X0019025Y0199125D01*
X0019084Y0199108D01*
X0019142Y0199087D01*
X0019199Y0199062D01*
X0019254Y0199034D01*
X0019307Y0199003D01*
X0019358Y0198968D01*
X0019407Y0198930D01*
X0019454Y0198889D01*
X0019497Y0198846D01*
X0019538Y0198799D01*
X0019576Y0198750D01*
X0019611Y0198699D01*
X0019642Y0198646D01*
X0019670Y0198591D01*
X0019695Y0198534D01*
X0019716Y0198476D01*
X0019733Y0198417D01*
X0019747Y0198356D01*
X0019756Y0198295D01*
X0019762Y0198234D01*
X0019764Y0198172D01*
X0019764Y0176518D01*
X0019762Y0176456D01*
X0019756Y0176395D01*
X0019747Y0176334D01*
X0019733Y0176273D01*
X0019716Y0176214D01*
X0019695Y0176156D01*
X0019670Y0176099D01*
X0019642Y0176044D01*
X0019611Y0175991D01*
X0019576Y0175940D01*
X0019538Y0175891D01*
X0019497Y0175844D01*
X0019454Y0175801D01*
X0019407Y0175760D01*
X0019358Y0175722D01*
X0019307Y0175687D01*
X0019254Y0175656D01*
X0019199Y0175628D01*
X0019142Y0175603D01*
X0019084Y0175582D01*
X0019025Y0175565D01*
X0018964Y0175551D01*
X0018903Y0175542D01*
X0018842Y0175536D01*
X0018780Y0175534D01*
X0017205Y0175534D01*
D18*
X0004900Y0175634D02*
X0002098Y0175634D01*
X0002098Y0177035D01*
X0002565Y0177502D01*
X0003499Y0177502D01*
X0003966Y0177035D01*
X0003966Y0175634D01*
X0003966Y0176568D02*
X0004900Y0177502D01*
X0004433Y0178396D02*
X0004900Y0178863D01*
X0004900Y0179797D01*
X0004433Y0180264D01*
X0003966Y0180264D01*
X0003499Y0179797D01*
X0003499Y0178863D01*
X0003032Y0178396D01*
X0002565Y0178396D01*
X0002098Y0178863D01*
X0002098Y0179797D01*
X0002565Y0180264D01*
X0002098Y0181159D02*
X0002098Y0183027D01*
X0002098Y0182093D02*
X0004900Y0182093D01*
M02*
