G75*
%MOIN*%
%OFA0B0*%
%FSLAX25Y25*%
%IPPOS*%
%LPD*%
%AMOC8*
5,1,8,0,0,1.08239X$1,22.5*
%
%ADD10C,0.00000*%
%ADD11R,0.03937X0.04331*%
%ADD12R,0.07874X0.04724*%
%ADD13C,0.07000*%
%ADD14C,0.07874*%
%ADD15R,0.06299X0.09055*%
%ADD16C,0.02500*%
%ADD17C,0.05400*%
%ADD18C,0.01600*%
%ADD19C,0.04000*%
D10*
X0002874Y0017345D02*
X0002874Y0212306D01*
X0151575Y0212306D01*
X0151575Y0017345D01*
X0002874Y0017345D01*
D11*
X0014528Y0092345D03*
X0021220Y0092345D03*
X0021220Y0117345D03*
X0014528Y0117345D03*
X0054528Y0102345D03*
X0061220Y0102345D03*
X0061220Y0082345D03*
X0054528Y0082345D03*
X0054528Y0057345D03*
X0061220Y0057345D03*
X0064528Y0122345D03*
X0071220Y0122345D03*
D12*
X0086654Y0145219D03*
X0086654Y0153093D03*
X0086654Y0160967D03*
X0086654Y0168841D03*
X0086654Y0176715D03*
X0086654Y0184589D03*
X0086654Y0192463D03*
X0086654Y0200337D03*
X0022874Y0200337D03*
X0022874Y0192463D03*
X0022874Y0184589D03*
X0022874Y0176715D03*
X0022874Y0168841D03*
X0022874Y0160967D03*
X0022874Y0153093D03*
X0022874Y0145219D03*
D13*
X0062874Y0035845D02*
X0062874Y0028845D01*
X0072874Y0028845D02*
X0072874Y0035845D01*
X0082874Y0035845D02*
X0082874Y0028845D01*
X0092874Y0028845D02*
X0092874Y0035845D01*
X0119374Y0057345D02*
X0126374Y0057345D01*
X0126374Y0067345D02*
X0119374Y0067345D01*
X0119374Y0077345D02*
X0126374Y0077345D01*
X0126374Y0117345D02*
X0119374Y0117345D01*
X0119374Y0127345D02*
X0126374Y0127345D01*
X0126374Y0137345D02*
X0119374Y0137345D01*
X0119374Y0177345D02*
X0126374Y0177345D01*
X0126374Y0187345D02*
X0119374Y0187345D01*
X0119374Y0197345D02*
X0126374Y0197345D01*
D14*
X0026811Y0054550D02*
X0018937Y0054550D01*
X0018937Y0030534D02*
X0026811Y0030534D01*
X0041772Y0038408D02*
X0041772Y0046282D01*
D15*
X0012874Y0174943D03*
X0012874Y0199746D03*
D16*
X0012999Y0200720D01*
X0021999Y0200720D01*
X0022874Y0200337D01*
X0023124Y0184970D02*
X0022874Y0184589D01*
X0023124Y0184970D02*
X0026499Y0184970D01*
X0034374Y0177095D01*
X0034374Y0138845D01*
X0020874Y0125345D01*
X0019749Y0125345D01*
X0015249Y0120845D01*
X0015249Y0117470D01*
X0014528Y0117345D01*
X0019749Y0116345D02*
X0020874Y0117470D01*
X0021220Y0117345D01*
X0019749Y0116345D02*
X0019749Y0115220D01*
X0021999Y0112970D01*
X0021999Y0108470D01*
X0023124Y0107345D01*
X0023124Y0108470D01*
X0023124Y0107345D02*
X0023124Y0097220D01*
X0020874Y0094970D01*
X0020874Y0092720D01*
X0021220Y0092345D01*
X0015249Y0091595D02*
X0015249Y0089345D01*
X0020874Y0083720D01*
X0021999Y0083720D01*
X0023124Y0082595D01*
X0025374Y0082595D01*
X0045624Y0102845D01*
X0045624Y0155720D01*
X0052374Y0162470D01*
X0075999Y0162470D01*
X0077124Y0161345D01*
X0086124Y0161345D01*
X0086654Y0160967D01*
X0087249Y0153470D02*
X0086654Y0153093D01*
X0087249Y0153470D02*
X0089499Y0153470D01*
X0098499Y0144470D01*
X0098499Y0139970D01*
X0080499Y0121970D01*
X0071499Y0121970D01*
X0071220Y0122345D01*
X0064749Y0125345D02*
X0070374Y0130970D01*
X0071499Y0130970D01*
X0075437Y0134907D01*
X0054624Y0155720D01*
X0052374Y0166970D02*
X0045624Y0173720D01*
X0052374Y0166970D02*
X0056874Y0166970D01*
X0059124Y0169220D01*
X0086124Y0169220D01*
X0086654Y0168841D01*
X0086654Y0176715D02*
X0087249Y0177095D01*
X0104124Y0177095D01*
X0114249Y0166970D01*
X0123249Y0166970D01*
X0123249Y0156845D01*
X0069249Y0102845D01*
X0061374Y0102845D01*
X0061220Y0102345D01*
X0054624Y0102845D02*
X0054528Y0102345D01*
X0053499Y0101720D01*
X0052374Y0101720D01*
X0045624Y0094970D01*
X0045624Y0076970D01*
X0051249Y0071345D01*
X0052374Y0071345D01*
X0052374Y0063470D01*
X0054624Y0061220D01*
X0054624Y0057845D01*
X0054528Y0057345D01*
X0061220Y0057345D02*
X0061374Y0057845D01*
X0068124Y0057845D01*
X0052374Y0075845D02*
X0055749Y0079220D01*
X0055749Y0081470D01*
X0054624Y0082595D01*
X0054528Y0082345D01*
X0052374Y0075845D02*
X0052374Y0071345D01*
X0061220Y0082345D02*
X0061374Y0082595D01*
X0095124Y0082595D01*
X0100749Y0088220D01*
X0123249Y0057845D02*
X0122874Y0057345D01*
X0123249Y0057845D02*
X0126624Y0057845D01*
X0128874Y0060095D01*
X0129999Y0060095D01*
X0136749Y0066845D01*
X0136749Y0080345D01*
X0131124Y0085970D01*
X0131124Y0087095D01*
X0136749Y0092720D01*
X0136749Y0200720D01*
X0129999Y0207470D01*
X0115374Y0207470D01*
X0109749Y0201845D01*
X0109749Y0198470D01*
X0096249Y0184970D01*
X0087249Y0184970D01*
X0086654Y0184589D01*
X0086654Y0192463D02*
X0086124Y0192845D01*
X0073749Y0192845D01*
X0054624Y0173720D01*
X0063624Y0200720D02*
X0086124Y0200720D01*
X0086654Y0200337D01*
X0122874Y0177345D02*
X0123249Y0177095D01*
X0123249Y0166970D01*
X0086654Y0145219D02*
X0086124Y0144470D01*
X0086124Y0137720D01*
X0083874Y0135470D01*
X0075999Y0135470D01*
X0075437Y0134907D01*
X0064749Y0125345D02*
X0064749Y0123095D01*
X0064528Y0122345D01*
X0064749Y0121970D01*
X0064749Y0118595D01*
X0062499Y0116345D01*
X0062499Y0115220D01*
X0063624Y0114095D01*
X0054624Y0105095D01*
X0054624Y0102845D01*
X0024249Y0137720D02*
X0023124Y0138845D01*
X0023124Y0144470D01*
X0022874Y0145219D01*
X0015249Y0164720D02*
X0014124Y0164720D01*
X0015249Y0164720D02*
X0018624Y0168095D01*
X0021999Y0168095D01*
X0022874Y0168841D01*
X0012999Y0180470D02*
X0014124Y0181595D01*
X0014124Y0184970D01*
X0012999Y0180470D02*
X0012999Y0175970D01*
X0012874Y0174943D01*
X0014528Y0092345D02*
X0015249Y0091595D01*
D17*
X0023124Y0108470D03*
X0024249Y0137720D03*
X0014124Y0164720D03*
X0014124Y0184970D03*
X0045624Y0173720D03*
X0054624Y0173720D03*
X0054624Y0155720D03*
X0063624Y0200720D03*
X0100749Y0088220D03*
X0131124Y0085970D03*
X0068124Y0057845D03*
D18*
X0072168Y0054111D02*
X0087977Y0054111D01*
X0089575Y0055709D02*
X0073193Y0055709D01*
X0072787Y0054729D02*
X0073624Y0056751D01*
X0073624Y0058939D01*
X0072787Y0060960D01*
X0071240Y0062508D01*
X0069218Y0063345D01*
X0067030Y0063345D01*
X0065009Y0062508D01*
X0064499Y0061998D01*
X0063746Y0062310D01*
X0058695Y0062310D01*
X0058576Y0062261D01*
X0058057Y0063514D01*
X0056424Y0065147D01*
X0056424Y0074167D01*
X0058043Y0075786D01*
X0059182Y0076926D01*
X0059370Y0077380D01*
X0063746Y0077380D01*
X0064775Y0077806D01*
X0065514Y0078545D01*
X0095930Y0078545D01*
X0097418Y0079161D01*
X0100977Y0082720D01*
X0101843Y0082720D01*
X0102699Y0083074D01*
X0102699Y0068833D01*
X0078680Y0044814D01*
X0077949Y0043050D01*
X0077949Y0039829D01*
X0077874Y0039754D01*
X0076443Y0041186D01*
X0074127Y0042145D01*
X0071621Y0042145D01*
X0069305Y0041186D01*
X0067874Y0039754D01*
X0066443Y0041186D01*
X0064127Y0042145D01*
X0061621Y0042145D01*
X0059305Y0041186D01*
X0057533Y0039414D01*
X0056574Y0037098D01*
X0056574Y0027592D01*
X0057533Y0025276D01*
X0059305Y0023504D01*
X0061621Y0022545D01*
X0064127Y0022545D01*
X0066443Y0023504D01*
X0067874Y0024935D01*
X0069305Y0023504D01*
X0071621Y0022545D01*
X0074127Y0022545D01*
X0076443Y0023504D01*
X0077874Y0024935D01*
X0079305Y0023504D01*
X0081621Y0022545D01*
X0084127Y0022545D01*
X0086443Y0023504D01*
X0087874Y0024935D01*
X0089305Y0023504D01*
X0091621Y0022545D01*
X0094127Y0022545D01*
X0096443Y0023504D01*
X0098215Y0025276D01*
X0099174Y0027592D01*
X0099174Y0037098D01*
X0098215Y0039414D01*
X0096443Y0041186D01*
X0094127Y0042145D01*
X0091621Y0042145D01*
X0089305Y0041186D01*
X0087874Y0039754D01*
X0087549Y0040079D01*
X0087549Y0040107D01*
X0110218Y0062776D01*
X0111568Y0064126D01*
X0112299Y0065890D01*
X0112299Y0119982D01*
X0115063Y0122746D01*
X0115464Y0122345D01*
X0114033Y0120914D01*
X0113074Y0118598D01*
X0113074Y0116092D01*
X0114033Y0113776D01*
X0115805Y0112004D01*
X0118121Y0111045D01*
X0127627Y0111045D01*
X0129943Y0112004D01*
X0131715Y0113776D01*
X0132674Y0116092D01*
X0132674Y0118598D01*
X0131715Y0120914D01*
X0130284Y0122345D01*
X0131715Y0123776D01*
X0132674Y0126092D01*
X0132674Y0128598D01*
X0131715Y0130914D01*
X0129943Y0132686D01*
X0129328Y0132940D01*
X0129827Y0133302D01*
X0130417Y0133892D01*
X0130907Y0134567D01*
X0131286Y0135310D01*
X0131544Y0136104D01*
X0131674Y0136928D01*
X0131674Y0137145D01*
X0123074Y0137145D01*
X0123074Y0137545D01*
X0122674Y0137545D01*
X0122674Y0142645D01*
X0118957Y0142645D01*
X0118133Y0142514D01*
X0117340Y0142257D01*
X0116596Y0141878D01*
X0115921Y0141387D01*
X0115331Y0140798D01*
X0114841Y0140123D01*
X0114462Y0139379D01*
X0114205Y0138586D01*
X0114074Y0137762D01*
X0114074Y0137545D01*
X0122674Y0137545D01*
X0122674Y0137145D01*
X0114074Y0137145D01*
X0114074Y0136928D01*
X0114205Y0136104D01*
X0114462Y0135310D01*
X0114841Y0134567D01*
X0115331Y0133892D01*
X0115921Y0133302D01*
X0116420Y0132940D01*
X0115805Y0132686D01*
X0115514Y0132395D01*
X0112169Y0132395D01*
X0110405Y0131664D01*
X0109055Y0130314D01*
X0103430Y0124689D01*
X0102699Y0122925D01*
X0102699Y0093365D01*
X0101843Y0093720D01*
X0099655Y0093720D01*
X0097634Y0092883D01*
X0096086Y0091335D01*
X0095249Y0089314D01*
X0095249Y0088447D01*
X0093446Y0086645D01*
X0065014Y0086645D01*
X0064775Y0086884D01*
X0063746Y0087310D01*
X0058695Y0087310D01*
X0057874Y0086970D01*
X0057053Y0087310D01*
X0052002Y0087310D01*
X0050973Y0086884D01*
X0050185Y0086096D01*
X0049759Y0085067D01*
X0049759Y0079623D01*
X0049954Y0079152D01*
X0049674Y0078872D01*
X0049674Y0093292D01*
X0053761Y0097380D01*
X0057053Y0097380D01*
X0057874Y0097720D01*
X0058695Y0097380D01*
X0063746Y0097380D01*
X0064775Y0097806D01*
X0065563Y0098593D01*
X0065646Y0098795D01*
X0070055Y0098795D01*
X0071543Y0099411D01*
X0125543Y0153411D01*
X0126682Y0154551D01*
X0127299Y0156039D01*
X0127299Y0171045D01*
X0127627Y0171045D01*
X0129943Y0172004D01*
X0131715Y0173776D01*
X0132674Y0176092D01*
X0132674Y0178598D01*
X0131715Y0180914D01*
X0130284Y0182345D01*
X0131715Y0183776D01*
X0132674Y0186092D01*
X0132674Y0188598D01*
X0131715Y0190914D01*
X0129943Y0192686D01*
X0129328Y0192940D01*
X0129827Y0193302D01*
X0130417Y0193892D01*
X0130907Y0194567D01*
X0131286Y0195310D01*
X0131544Y0196104D01*
X0131674Y0196928D01*
X0131674Y0197145D01*
X0123074Y0197145D01*
X0123074Y0197545D01*
X0122674Y0197545D01*
X0122674Y0202645D01*
X0118957Y0202645D01*
X0118133Y0202514D01*
X0117340Y0202257D01*
X0116596Y0201878D01*
X0115921Y0201387D01*
X0115331Y0200798D01*
X0114841Y0200123D01*
X0114462Y0199379D01*
X0114205Y0198586D01*
X0114074Y0197762D01*
X0114074Y0197545D01*
X0122674Y0197545D01*
X0122674Y0197145D01*
X0114074Y0197145D01*
X0114074Y0196928D01*
X0114205Y0196104D01*
X0114462Y0195310D01*
X0114841Y0194567D01*
X0115331Y0193892D01*
X0115921Y0193302D01*
X0116420Y0192940D01*
X0115805Y0192686D01*
X0114033Y0190914D01*
X0113074Y0188598D01*
X0113074Y0186092D01*
X0114033Y0183776D01*
X0115464Y0182345D01*
X0114033Y0180914D01*
X0113074Y0178598D01*
X0113074Y0176092D01*
X0114033Y0173776D01*
X0115805Y0172004D01*
X0118121Y0171045D01*
X0119199Y0171045D01*
X0119199Y0171020D01*
X0115927Y0171020D01*
X0106418Y0180528D01*
X0104930Y0181145D01*
X0097598Y0181145D01*
X0098543Y0181536D01*
X0112043Y0195036D01*
X0113182Y0196176D01*
X0113799Y0197664D01*
X0113799Y0200167D01*
X0117052Y0203420D01*
X0128321Y0203420D01*
X0132699Y0199042D01*
X0132699Y0094397D01*
X0129589Y0091287D01*
X0128009Y0090633D01*
X0126461Y0089085D01*
X0125624Y0087064D01*
X0125624Y0084876D01*
X0126461Y0082854D01*
X0126671Y0082645D01*
X0123074Y0082645D01*
X0123074Y0077545D01*
X0122674Y0077545D01*
X0122674Y0082645D01*
X0118957Y0082645D01*
X0118133Y0082514D01*
X0117340Y0082257D01*
X0116596Y0081878D01*
X0115921Y0081387D01*
X0115331Y0080798D01*
X0114841Y0080123D01*
X0114462Y0079379D01*
X0114205Y0078586D01*
X0114074Y0077762D01*
X0114074Y0077545D01*
X0122674Y0077545D01*
X0122674Y0077145D01*
X0114074Y0077145D01*
X0114074Y0076928D01*
X0114205Y0076104D01*
X0114462Y0075310D01*
X0114841Y0074567D01*
X0115331Y0073892D01*
X0115921Y0073302D01*
X0116420Y0072940D01*
X0115805Y0072686D01*
X0114033Y0070914D01*
X0113074Y0068598D01*
X0113074Y0066092D01*
X0114033Y0063776D01*
X0115464Y0062345D01*
X0114033Y0060914D01*
X0113074Y0058598D01*
X0113074Y0056092D01*
X0114033Y0053776D01*
X0115805Y0052004D01*
X0118121Y0051045D01*
X0127627Y0051045D01*
X0129943Y0052004D01*
X0131715Y0053776D01*
X0132674Y0056092D01*
X0132674Y0057042D01*
X0133432Y0057801D01*
X0140182Y0064551D01*
X0140799Y0066039D01*
X0140799Y0081150D01*
X0140182Y0082639D01*
X0139043Y0083778D01*
X0136624Y0086197D01*
X0136624Y0086867D01*
X0140182Y0090426D01*
X0140799Y0091914D01*
X0140799Y0201525D01*
X0140182Y0203014D01*
X0139043Y0204153D01*
X0134691Y0208506D01*
X0147775Y0208506D01*
X0147775Y0021145D01*
X0006674Y0021145D01*
X0006674Y0208506D01*
X0110682Y0208506D01*
X0107455Y0205278D01*
X0107455Y0205278D01*
X0106316Y0204139D01*
X0105699Y0202650D01*
X0105699Y0200147D01*
X0094571Y0189020D01*
X0093174Y0189020D01*
X0093391Y0189544D01*
X0093391Y0195382D01*
X0092969Y0196400D01*
X0093391Y0197418D01*
X0093391Y0203256D01*
X0092964Y0204285D01*
X0092177Y0205073D01*
X0091148Y0205499D01*
X0082160Y0205499D01*
X0081130Y0205073D01*
X0080827Y0204770D01*
X0067352Y0204770D01*
X0066740Y0205383D01*
X0064718Y0206220D01*
X0062530Y0206220D01*
X0060509Y0205383D01*
X0058961Y0203835D01*
X0058124Y0201814D01*
X0058124Y0199626D01*
X0058961Y0197604D01*
X0060509Y0196057D01*
X0062530Y0195220D01*
X0064718Y0195220D01*
X0066740Y0196057D01*
X0067352Y0196670D01*
X0072400Y0196670D01*
X0071455Y0196278D01*
X0054396Y0179220D01*
X0053530Y0179220D01*
X0051509Y0178383D01*
X0050124Y0176998D01*
X0048740Y0178383D01*
X0046718Y0179220D01*
X0044530Y0179220D01*
X0042509Y0178383D01*
X0040961Y0176835D01*
X0040124Y0174814D01*
X0040124Y0172626D01*
X0040961Y0170604D01*
X0042509Y0169057D01*
X0044530Y0168220D01*
X0045396Y0168220D01*
X0048896Y0164720D01*
X0042191Y0158014D01*
X0041574Y0156525D01*
X0041574Y0104522D01*
X0024231Y0087179D01*
X0023746Y0087380D01*
X0024775Y0087806D01*
X0025563Y0088593D01*
X0025989Y0089623D01*
X0025989Y0094357D01*
X0026557Y0094926D01*
X0027174Y0096414D01*
X0027174Y0104742D01*
X0027787Y0105354D01*
X0028624Y0107376D01*
X0028624Y0109564D01*
X0027787Y0111585D01*
X0026240Y0113133D01*
X0026049Y0113211D01*
X0026049Y0113775D01*
X0025844Y0114271D01*
X0025989Y0114623D01*
X0025989Y0120067D01*
X0025563Y0121096D01*
X0024775Y0121884D01*
X0023746Y0122310D01*
X0023567Y0122310D01*
X0036668Y0135411D01*
X0037807Y0136551D01*
X0038424Y0138039D01*
X0038424Y0177900D01*
X0037807Y0179389D01*
X0029932Y0187264D01*
X0029556Y0187640D01*
X0029189Y0188526D01*
X0029611Y0189544D01*
X0029611Y0195382D01*
X0029189Y0196400D01*
X0029611Y0197418D01*
X0029611Y0203256D01*
X0029185Y0204285D01*
X0028397Y0205073D01*
X0027368Y0205499D01*
X0018547Y0205499D01*
X0018397Y0205860D01*
X0017610Y0206648D01*
X0016581Y0207074D01*
X0009167Y0207074D01*
X0008138Y0206648D01*
X0007351Y0205860D01*
X0006924Y0204831D01*
X0006924Y0194662D01*
X0007351Y0193633D01*
X0008138Y0192845D01*
X0009167Y0192419D01*
X0016137Y0192419D01*
X0016137Y0190089D01*
X0015218Y0190470D01*
X0013030Y0190470D01*
X0011009Y0189633D01*
X0009461Y0188085D01*
X0008624Y0186064D01*
X0008624Y0183876D01*
X0009289Y0182271D01*
X0009167Y0182271D01*
X0008138Y0181845D01*
X0007351Y0181057D01*
X0006924Y0180028D01*
X0006924Y0169859D01*
X0007351Y0168830D01*
X0008138Y0168042D01*
X0009167Y0167616D01*
X0009370Y0167616D01*
X0008624Y0165814D01*
X0008624Y0163626D01*
X0009461Y0161604D01*
X0011009Y0160057D01*
X0013030Y0159220D01*
X0015218Y0159220D01*
X0016137Y0159601D01*
X0016137Y0158048D01*
X0016559Y0157030D01*
X0016137Y0156012D01*
X0016137Y0150174D01*
X0016559Y0149156D01*
X0016137Y0148138D01*
X0016137Y0142300D01*
X0016563Y0141271D01*
X0017351Y0140483D01*
X0018380Y0140057D01*
X0019074Y0140057D01*
X0019074Y0139599D01*
X0018749Y0138814D01*
X0018749Y0136626D01*
X0019586Y0134604D01*
X0021134Y0133057D01*
X0022353Y0132552D01*
X0019196Y0129395D01*
X0018943Y0129395D01*
X0017455Y0128778D01*
X0016316Y0127639D01*
X0011816Y0123139D01*
X0011363Y0122045D01*
X0010973Y0121884D01*
X0010185Y0121096D01*
X0009759Y0120067D01*
X0009759Y0114623D01*
X0010185Y0113593D01*
X0010973Y0112806D01*
X0012002Y0112380D01*
X0016862Y0112380D01*
X0017455Y0111786D01*
X0017949Y0111292D01*
X0017949Y0110348D01*
X0017624Y0109564D01*
X0017624Y0107376D01*
X0018461Y0105354D01*
X0019074Y0104742D01*
X0019074Y0098897D01*
X0017441Y0097264D01*
X0017400Y0097166D01*
X0017053Y0097310D01*
X0012002Y0097310D01*
X0010973Y0096884D01*
X0010185Y0096096D01*
X0009759Y0095067D01*
X0009759Y0089623D01*
X0010185Y0088593D01*
X0010973Y0087806D01*
X0011613Y0087541D01*
X0011816Y0087051D01*
X0017441Y0081426D01*
X0018580Y0080286D01*
X0020068Y0079670D01*
X0020321Y0079670D01*
X0020830Y0079161D01*
X0022318Y0078545D01*
X0026180Y0078545D01*
X0027668Y0079161D01*
X0041574Y0093067D01*
X0041574Y0076164D01*
X0042191Y0074676D01*
X0047816Y0069051D01*
X0048324Y0068542D01*
X0048324Y0062664D01*
X0048941Y0061176D01*
X0049844Y0060272D01*
X0049759Y0060067D01*
X0049759Y0054623D01*
X0050185Y0053593D01*
X0050973Y0052806D01*
X0052002Y0052380D01*
X0057053Y0052380D01*
X0057874Y0052720D01*
X0058695Y0052380D01*
X0063746Y0052380D01*
X0064775Y0052806D01*
X0065110Y0053140D01*
X0067030Y0052345D01*
X0069218Y0052345D01*
X0071240Y0053182D01*
X0072787Y0054729D01*
X0073624Y0057308D02*
X0091174Y0057308D01*
X0092772Y0058906D02*
X0073624Y0058906D01*
X0072975Y0060505D02*
X0094371Y0060505D01*
X0095969Y0062103D02*
X0071644Y0062103D01*
X0069622Y0052512D02*
X0086378Y0052512D01*
X0084780Y0050914D02*
X0046667Y0050914D01*
X0047483Y0050098D02*
X0045588Y0051993D01*
X0043112Y0053019D01*
X0040432Y0053019D01*
X0037955Y0051993D01*
X0036060Y0050098D01*
X0035035Y0047622D01*
X0035035Y0037068D01*
X0036060Y0034592D01*
X0037955Y0032697D01*
X0040432Y0031671D01*
X0043112Y0031671D01*
X0045588Y0032697D01*
X0047483Y0034592D01*
X0048509Y0037068D01*
X0048509Y0047622D01*
X0047483Y0050098D01*
X0047807Y0049315D02*
X0083181Y0049315D01*
X0081583Y0047717D02*
X0048469Y0047717D01*
X0048509Y0046118D02*
X0079984Y0046118D01*
X0078558Y0044520D02*
X0048509Y0044520D01*
X0048509Y0042921D02*
X0077949Y0042921D01*
X0077949Y0041323D02*
X0076112Y0041323D01*
X0069636Y0041323D02*
X0066112Y0041323D01*
X0059636Y0041323D02*
X0048509Y0041323D01*
X0048509Y0039724D02*
X0057844Y0039724D01*
X0057000Y0038126D02*
X0048509Y0038126D01*
X0048285Y0036527D02*
X0056574Y0036527D01*
X0056574Y0034929D02*
X0047623Y0034929D01*
X0046221Y0033330D02*
X0056574Y0033330D01*
X0056574Y0031731D02*
X0043258Y0031731D01*
X0040285Y0031731D02*
X0032430Y0031731D01*
X0032407Y0031877D02*
X0032128Y0032736D01*
X0031718Y0033541D01*
X0031187Y0034271D01*
X0030548Y0034910D01*
X0029818Y0035441D01*
X0029013Y0035851D01*
X0028154Y0036130D01*
X0027263Y0036271D01*
X0023058Y0036271D01*
X0023058Y0030718D01*
X0022690Y0030718D01*
X0022690Y0036271D01*
X0018485Y0036271D01*
X0017594Y0036130D01*
X0016735Y0035851D01*
X0015930Y0035441D01*
X0015200Y0034910D01*
X0014561Y0034271D01*
X0014030Y0033541D01*
X0013620Y0032736D01*
X0013341Y0031877D01*
X0013200Y0030985D01*
X0013200Y0030718D01*
X0022690Y0030718D01*
X0022690Y0030350D01*
X0013200Y0030350D01*
X0013200Y0030082D01*
X0013341Y0029190D01*
X0013620Y0028332D01*
X0014030Y0027527D01*
X0014561Y0026796D01*
X0015200Y0026158D01*
X0015930Y0025627D01*
X0016735Y0025217D01*
X0017594Y0024938D01*
X0018485Y0024797D01*
X0022690Y0024797D01*
X0022690Y0030350D01*
X0023058Y0030350D01*
X0023058Y0030718D01*
X0032548Y0030718D01*
X0032548Y0030985D01*
X0032407Y0031877D01*
X0032548Y0030350D02*
X0023058Y0030350D01*
X0023058Y0024797D01*
X0027263Y0024797D01*
X0028154Y0024938D01*
X0029013Y0025217D01*
X0029818Y0025627D01*
X0030548Y0026158D01*
X0031187Y0026796D01*
X0031718Y0027527D01*
X0032128Y0028332D01*
X0032407Y0029190D01*
X0032548Y0030082D01*
X0032548Y0030350D01*
X0032548Y0030133D02*
X0056574Y0030133D01*
X0056574Y0028534D02*
X0032194Y0028534D01*
X0031288Y0026936D02*
X0056846Y0026936D01*
X0057508Y0025337D02*
X0029249Y0025337D01*
X0023058Y0025337D02*
X0022690Y0025337D01*
X0022690Y0026936D02*
X0023058Y0026936D01*
X0023058Y0028534D02*
X0022690Y0028534D01*
X0022690Y0030133D02*
X0023058Y0030133D01*
X0023058Y0031731D02*
X0022690Y0031731D01*
X0022690Y0033330D02*
X0023058Y0033330D01*
X0023058Y0034929D02*
X0022690Y0034929D01*
X0016499Y0025337D02*
X0006674Y0025337D01*
X0006674Y0023739D02*
X0059070Y0023739D01*
X0066678Y0023739D02*
X0069070Y0023739D01*
X0076678Y0023739D02*
X0079070Y0023739D01*
X0086678Y0023739D02*
X0089070Y0023739D01*
X0096678Y0023739D02*
X0147775Y0023739D01*
X0147775Y0025337D02*
X0098240Y0025337D01*
X0098902Y0026936D02*
X0147775Y0026936D01*
X0147775Y0028534D02*
X0099174Y0028534D01*
X0099174Y0030133D02*
X0147775Y0030133D01*
X0147775Y0031731D02*
X0099174Y0031731D01*
X0099174Y0033330D02*
X0147775Y0033330D01*
X0147775Y0034929D02*
X0099174Y0034929D01*
X0099174Y0036527D02*
X0147775Y0036527D01*
X0147775Y0038126D02*
X0098748Y0038126D01*
X0097904Y0039724D02*
X0147775Y0039724D01*
X0147775Y0041323D02*
X0096112Y0041323D01*
X0093560Y0046118D02*
X0147775Y0046118D01*
X0147775Y0044520D02*
X0091962Y0044520D01*
X0090363Y0042921D02*
X0147775Y0042921D01*
X0147775Y0047717D02*
X0095159Y0047717D01*
X0096757Y0049315D02*
X0147775Y0049315D01*
X0147775Y0050914D02*
X0098356Y0050914D01*
X0099954Y0052512D02*
X0115297Y0052512D01*
X0113895Y0054111D02*
X0101553Y0054111D01*
X0103152Y0055709D02*
X0113232Y0055709D01*
X0113074Y0057308D02*
X0104750Y0057308D01*
X0106349Y0058906D02*
X0113202Y0058906D01*
X0113864Y0060505D02*
X0107947Y0060505D01*
X0109546Y0062103D02*
X0115223Y0062103D01*
X0114108Y0063702D02*
X0111144Y0063702D01*
X0112055Y0065300D02*
X0113402Y0065300D01*
X0113074Y0066899D02*
X0112299Y0066899D01*
X0112299Y0068497D02*
X0113074Y0068497D01*
X0113694Y0070096D02*
X0112299Y0070096D01*
X0112299Y0071694D02*
X0114814Y0071694D01*
X0115934Y0073293D02*
X0112299Y0073293D01*
X0112299Y0074891D02*
X0114676Y0074891D01*
X0114143Y0076490D02*
X0112299Y0076490D01*
X0112299Y0078088D02*
X0114126Y0078088D01*
X0114619Y0079687D02*
X0112299Y0079687D01*
X0112299Y0081285D02*
X0115819Y0081285D01*
X0112299Y0082884D02*
X0126449Y0082884D01*
X0125787Y0084482D02*
X0112299Y0084482D01*
X0112299Y0086081D02*
X0125624Y0086081D01*
X0125879Y0087679D02*
X0112299Y0087679D01*
X0112299Y0089278D02*
X0126654Y0089278D01*
X0128597Y0090876D02*
X0112299Y0090876D01*
X0112299Y0092475D02*
X0130777Y0092475D01*
X0132375Y0094073D02*
X0112299Y0094073D01*
X0112299Y0095672D02*
X0132699Y0095672D01*
X0132699Y0097270D02*
X0112299Y0097270D01*
X0112299Y0098869D02*
X0132699Y0098869D01*
X0132699Y0100467D02*
X0112299Y0100467D01*
X0112299Y0102066D02*
X0132699Y0102066D01*
X0132699Y0103664D02*
X0112299Y0103664D01*
X0112299Y0105263D02*
X0132699Y0105263D01*
X0132699Y0106862D02*
X0112299Y0106862D01*
X0112299Y0108460D02*
X0132699Y0108460D01*
X0132699Y0110059D02*
X0112299Y0110059D01*
X0112299Y0111657D02*
X0116643Y0111657D01*
X0114554Y0113256D02*
X0112299Y0113256D01*
X0112299Y0114854D02*
X0113587Y0114854D01*
X0113074Y0116453D02*
X0112299Y0116453D01*
X0112299Y0118051D02*
X0113074Y0118051D01*
X0113510Y0119650D02*
X0112299Y0119650D01*
X0113565Y0121248D02*
X0114368Y0121248D01*
X0107982Y0129241D02*
X0101372Y0129241D01*
X0099774Y0127642D02*
X0106383Y0127642D01*
X0104785Y0126044D02*
X0098175Y0126044D01*
X0096577Y0124445D02*
X0103329Y0124445D01*
X0102699Y0122847D02*
X0094978Y0122847D01*
X0093380Y0121248D02*
X0102699Y0121248D01*
X0102699Y0119650D02*
X0091781Y0119650D01*
X0090183Y0118051D02*
X0102699Y0118051D01*
X0102699Y0116453D02*
X0088584Y0116453D01*
X0086986Y0114854D02*
X0102699Y0114854D01*
X0102699Y0113256D02*
X0085387Y0113256D01*
X0083789Y0111657D02*
X0102699Y0111657D01*
X0102699Y0110059D02*
X0082190Y0110059D01*
X0080592Y0108460D02*
X0102699Y0108460D01*
X0102699Y0106862D02*
X0078993Y0106862D01*
X0077395Y0105263D02*
X0102699Y0105263D01*
X0102699Y0103664D02*
X0075796Y0103664D01*
X0074198Y0102066D02*
X0102699Y0102066D01*
X0102699Y0100467D02*
X0072599Y0100467D01*
X0070233Y0098869D02*
X0102699Y0098869D01*
X0102699Y0097270D02*
X0053652Y0097270D01*
X0052054Y0095672D02*
X0102699Y0095672D01*
X0102699Y0094073D02*
X0050455Y0094073D01*
X0049674Y0092475D02*
X0097226Y0092475D01*
X0095896Y0090876D02*
X0049674Y0090876D01*
X0049674Y0089278D02*
X0095249Y0089278D01*
X0094481Y0087679D02*
X0049674Y0087679D01*
X0049674Y0086081D02*
X0050179Y0086081D01*
X0049759Y0084482D02*
X0049674Y0084482D01*
X0049674Y0082884D02*
X0049759Y0082884D01*
X0049759Y0081285D02*
X0049674Y0081285D01*
X0049674Y0079687D02*
X0049759Y0079687D01*
X0057148Y0074891D02*
X0102699Y0074891D01*
X0102699Y0073293D02*
X0056424Y0073293D01*
X0056424Y0071694D02*
X0102699Y0071694D01*
X0102699Y0070096D02*
X0056424Y0070096D01*
X0056424Y0068497D02*
X0102363Y0068497D01*
X0100765Y0066899D02*
X0056424Y0066899D01*
X0056424Y0065300D02*
X0099166Y0065300D01*
X0097568Y0063702D02*
X0057870Y0063702D01*
X0064246Y0062103D02*
X0064604Y0062103D01*
X0064066Y0052512D02*
X0066626Y0052512D01*
X0058375Y0052512D02*
X0057373Y0052512D01*
X0051682Y0052512D02*
X0044335Y0052512D01*
X0039208Y0052512D02*
X0033259Y0052512D01*
X0033548Y0053210D02*
X0033548Y0055890D01*
X0032522Y0058366D01*
X0030627Y0060261D01*
X0028151Y0061287D01*
X0017597Y0061287D01*
X0015121Y0060261D01*
X0013226Y0058366D01*
X0012200Y0055890D01*
X0012200Y0053210D01*
X0013226Y0050733D01*
X0015121Y0048838D01*
X0017597Y0047813D01*
X0028151Y0047813D01*
X0030627Y0048838D01*
X0032522Y0050733D01*
X0033548Y0053210D01*
X0033548Y0054111D02*
X0049971Y0054111D01*
X0049759Y0055709D02*
X0033548Y0055709D01*
X0032961Y0057308D02*
X0049759Y0057308D01*
X0049759Y0058906D02*
X0031982Y0058906D01*
X0030039Y0060505D02*
X0049612Y0060505D01*
X0048556Y0062103D02*
X0006674Y0062103D01*
X0006674Y0060505D02*
X0015709Y0060505D01*
X0013766Y0058906D02*
X0006674Y0058906D01*
X0006674Y0057308D02*
X0012787Y0057308D01*
X0012200Y0055709D02*
X0006674Y0055709D01*
X0006674Y0054111D02*
X0012200Y0054111D01*
X0012489Y0052512D02*
X0006674Y0052512D01*
X0006674Y0050914D02*
X0013151Y0050914D01*
X0014644Y0049315D02*
X0006674Y0049315D01*
X0006674Y0047717D02*
X0035074Y0047717D01*
X0035035Y0046118D02*
X0006674Y0046118D01*
X0006674Y0044520D02*
X0035035Y0044520D01*
X0035035Y0042921D02*
X0006674Y0042921D01*
X0006674Y0041323D02*
X0035035Y0041323D01*
X0035035Y0039724D02*
X0006674Y0039724D01*
X0006674Y0038126D02*
X0035035Y0038126D01*
X0035259Y0036527D02*
X0006674Y0036527D01*
X0006674Y0034929D02*
X0015225Y0034929D01*
X0013923Y0033330D02*
X0006674Y0033330D01*
X0006674Y0031731D02*
X0013318Y0031731D01*
X0013200Y0030133D02*
X0006674Y0030133D01*
X0006674Y0028534D02*
X0013554Y0028534D01*
X0014460Y0026936D02*
X0006674Y0026936D01*
X0006674Y0022140D02*
X0147775Y0022140D01*
X0147775Y0052512D02*
X0130451Y0052512D01*
X0131853Y0054111D02*
X0147775Y0054111D01*
X0147775Y0055709D02*
X0132516Y0055709D01*
X0132939Y0057308D02*
X0147775Y0057308D01*
X0147775Y0058906D02*
X0134538Y0058906D01*
X0136136Y0060505D02*
X0147775Y0060505D01*
X0147775Y0062103D02*
X0137735Y0062103D01*
X0139333Y0063702D02*
X0147775Y0063702D01*
X0147775Y0065300D02*
X0140493Y0065300D01*
X0140799Y0066899D02*
X0147775Y0066899D01*
X0147775Y0068497D02*
X0140799Y0068497D01*
X0140799Y0070096D02*
X0147775Y0070096D01*
X0147775Y0071694D02*
X0140799Y0071694D01*
X0140799Y0073293D02*
X0147775Y0073293D01*
X0147775Y0074891D02*
X0140799Y0074891D01*
X0140799Y0076490D02*
X0147775Y0076490D01*
X0147775Y0078088D02*
X0140799Y0078088D01*
X0140799Y0079687D02*
X0147775Y0079687D01*
X0147775Y0081285D02*
X0140743Y0081285D01*
X0139938Y0082884D02*
X0147775Y0082884D01*
X0147775Y0084482D02*
X0138339Y0084482D01*
X0136741Y0086081D02*
X0147775Y0086081D01*
X0147775Y0087679D02*
X0137436Y0087679D01*
X0139035Y0089278D02*
X0147775Y0089278D01*
X0147775Y0090876D02*
X0140369Y0090876D01*
X0140799Y0092475D02*
X0147775Y0092475D01*
X0147775Y0094073D02*
X0140799Y0094073D01*
X0140799Y0095672D02*
X0147775Y0095672D01*
X0147775Y0097270D02*
X0140799Y0097270D01*
X0140799Y0098869D02*
X0147775Y0098869D01*
X0147775Y0100467D02*
X0140799Y0100467D01*
X0140799Y0102066D02*
X0147775Y0102066D01*
X0147775Y0103664D02*
X0140799Y0103664D01*
X0140799Y0105263D02*
X0147775Y0105263D01*
X0147775Y0106862D02*
X0140799Y0106862D01*
X0140799Y0108460D02*
X0147775Y0108460D01*
X0147775Y0110059D02*
X0140799Y0110059D01*
X0140799Y0111657D02*
X0147775Y0111657D01*
X0147775Y0113256D02*
X0140799Y0113256D01*
X0140799Y0114854D02*
X0147775Y0114854D01*
X0147775Y0116453D02*
X0140799Y0116453D01*
X0140799Y0118051D02*
X0147775Y0118051D01*
X0147775Y0119650D02*
X0140799Y0119650D01*
X0140799Y0121248D02*
X0147775Y0121248D01*
X0147775Y0122847D02*
X0140799Y0122847D01*
X0140799Y0124445D02*
X0147775Y0124445D01*
X0147775Y0126044D02*
X0140799Y0126044D01*
X0140799Y0127642D02*
X0147775Y0127642D01*
X0147775Y0129241D02*
X0140799Y0129241D01*
X0140799Y0130839D02*
X0147775Y0130839D01*
X0147775Y0132438D02*
X0140799Y0132438D01*
X0140799Y0134036D02*
X0147775Y0134036D01*
X0147775Y0135635D02*
X0140799Y0135635D01*
X0140799Y0137233D02*
X0147775Y0137233D01*
X0147775Y0138832D02*
X0140799Y0138832D01*
X0140799Y0140430D02*
X0147775Y0140430D01*
X0147775Y0142029D02*
X0140799Y0142029D01*
X0140799Y0143627D02*
X0147775Y0143627D01*
X0147775Y0145226D02*
X0140799Y0145226D01*
X0140799Y0146824D02*
X0147775Y0146824D01*
X0147775Y0148423D02*
X0140799Y0148423D01*
X0140799Y0150021D02*
X0147775Y0150021D01*
X0147775Y0151620D02*
X0140799Y0151620D01*
X0140799Y0153218D02*
X0147775Y0153218D01*
X0147775Y0154817D02*
X0140799Y0154817D01*
X0140799Y0156415D02*
X0147775Y0156415D01*
X0147775Y0158014D02*
X0140799Y0158014D01*
X0140799Y0159612D02*
X0147775Y0159612D01*
X0147775Y0161211D02*
X0140799Y0161211D01*
X0140799Y0162809D02*
X0147775Y0162809D01*
X0147775Y0164408D02*
X0140799Y0164408D01*
X0140799Y0166006D02*
X0147775Y0166006D01*
X0147775Y0167605D02*
X0140799Y0167605D01*
X0140799Y0169203D02*
X0147775Y0169203D01*
X0147775Y0170802D02*
X0140799Y0170802D01*
X0140799Y0172400D02*
X0147775Y0172400D01*
X0147775Y0173999D02*
X0140799Y0173999D01*
X0140799Y0175598D02*
X0147775Y0175598D01*
X0147775Y0177196D02*
X0140799Y0177196D01*
X0140799Y0178795D02*
X0147775Y0178795D01*
X0147775Y0180393D02*
X0140799Y0180393D01*
X0140799Y0181992D02*
X0147775Y0181992D01*
X0147775Y0183590D02*
X0140799Y0183590D01*
X0140799Y0185189D02*
X0147775Y0185189D01*
X0147775Y0186787D02*
X0140799Y0186787D01*
X0140799Y0188386D02*
X0147775Y0188386D01*
X0147775Y0189984D02*
X0140799Y0189984D01*
X0140799Y0191583D02*
X0147775Y0191583D01*
X0147775Y0193181D02*
X0140799Y0193181D01*
X0140799Y0194780D02*
X0147775Y0194780D01*
X0147775Y0196378D02*
X0140799Y0196378D01*
X0140799Y0197977D02*
X0147775Y0197977D01*
X0147775Y0199575D02*
X0140799Y0199575D01*
X0140799Y0201174D02*
X0147775Y0201174D01*
X0147775Y0202772D02*
X0140283Y0202772D01*
X0139043Y0204153D02*
X0139043Y0204153D01*
X0138826Y0204371D02*
X0147775Y0204371D01*
X0147775Y0205969D02*
X0137227Y0205969D01*
X0135629Y0207568D02*
X0147775Y0207568D01*
X0132166Y0199575D02*
X0131186Y0199575D01*
X0131286Y0199379D02*
X0130907Y0200123D01*
X0130417Y0200798D01*
X0129827Y0201387D01*
X0129152Y0201878D01*
X0128409Y0202257D01*
X0127615Y0202514D01*
X0126791Y0202645D01*
X0123074Y0202645D01*
X0123074Y0197545D01*
X0131674Y0197545D01*
X0131674Y0197762D01*
X0131544Y0198586D01*
X0131286Y0199379D01*
X0131640Y0197977D02*
X0132699Y0197977D01*
X0132699Y0196378D02*
X0131587Y0196378D01*
X0131015Y0194780D02*
X0132699Y0194780D01*
X0132699Y0193181D02*
X0129660Y0193181D01*
X0131046Y0191583D02*
X0132699Y0191583D01*
X0132699Y0189984D02*
X0132100Y0189984D01*
X0132674Y0188386D02*
X0132699Y0188386D01*
X0132674Y0186787D02*
X0132699Y0186787D01*
X0132699Y0185189D02*
X0132300Y0185189D01*
X0132699Y0183590D02*
X0131529Y0183590D01*
X0130637Y0181992D02*
X0132699Y0181992D01*
X0132699Y0180393D02*
X0131930Y0180393D01*
X0132593Y0178795D02*
X0132699Y0178795D01*
X0132674Y0177196D02*
X0132699Y0177196D01*
X0132699Y0175598D02*
X0132469Y0175598D01*
X0132699Y0173999D02*
X0131807Y0173999D01*
X0132699Y0172400D02*
X0130339Y0172400D01*
X0132699Y0170802D02*
X0127299Y0170802D01*
X0127299Y0169203D02*
X0132699Y0169203D01*
X0132699Y0167605D02*
X0127299Y0167605D01*
X0127299Y0166006D02*
X0132699Y0166006D01*
X0132699Y0164408D02*
X0127299Y0164408D01*
X0127299Y0162809D02*
X0132699Y0162809D01*
X0132699Y0161211D02*
X0127299Y0161211D01*
X0127299Y0159612D02*
X0132699Y0159612D01*
X0132699Y0158014D02*
X0127299Y0158014D01*
X0127299Y0156415D02*
X0132699Y0156415D01*
X0132699Y0154817D02*
X0126793Y0154817D01*
X0125350Y0153218D02*
X0132699Y0153218D01*
X0132699Y0151620D02*
X0123752Y0151620D01*
X0122153Y0150021D02*
X0132699Y0150021D01*
X0132699Y0148423D02*
X0120555Y0148423D01*
X0118956Y0146824D02*
X0132699Y0146824D01*
X0132699Y0145226D02*
X0117357Y0145226D01*
X0115759Y0143627D02*
X0132699Y0143627D01*
X0132699Y0142029D02*
X0128856Y0142029D01*
X0129152Y0141878D02*
X0128409Y0142257D01*
X0127615Y0142514D01*
X0126791Y0142645D01*
X0123074Y0142645D01*
X0123074Y0137545D01*
X0131674Y0137545D01*
X0131674Y0137762D01*
X0131544Y0138586D01*
X0131286Y0139379D01*
X0130907Y0140123D01*
X0130417Y0140798D01*
X0129827Y0141387D01*
X0129152Y0141878D01*
X0130684Y0140430D02*
X0132699Y0140430D01*
X0132699Y0138832D02*
X0131464Y0138832D01*
X0132699Y0137233D02*
X0123074Y0137233D01*
X0122674Y0137233D02*
X0109365Y0137233D01*
X0107766Y0135635D02*
X0114357Y0135635D01*
X0115227Y0134036D02*
X0106168Y0134036D01*
X0104569Y0132438D02*
X0115557Y0132438D01*
X0114284Y0138832D02*
X0110963Y0138832D01*
X0112562Y0140430D02*
X0115065Y0140430D01*
X0114160Y0142029D02*
X0116892Y0142029D01*
X0122674Y0142029D02*
X0123074Y0142029D01*
X0123074Y0140430D02*
X0122674Y0140430D01*
X0122674Y0138832D02*
X0123074Y0138832D01*
X0130521Y0134036D02*
X0132699Y0134036D01*
X0132699Y0132438D02*
X0130191Y0132438D01*
X0131746Y0130839D02*
X0132699Y0130839D01*
X0132699Y0129241D02*
X0132408Y0129241D01*
X0132674Y0127642D02*
X0132699Y0127642D01*
X0132654Y0126044D02*
X0132699Y0126044D01*
X0132699Y0124445D02*
X0131992Y0124445D01*
X0132699Y0122847D02*
X0130785Y0122847D01*
X0131380Y0121248D02*
X0132699Y0121248D01*
X0132699Y0119650D02*
X0132238Y0119650D01*
X0132674Y0118051D02*
X0132699Y0118051D01*
X0132674Y0116453D02*
X0132699Y0116453D01*
X0132699Y0114854D02*
X0132161Y0114854D01*
X0132699Y0113256D02*
X0131194Y0113256D01*
X0132699Y0111657D02*
X0129105Y0111657D01*
X0131391Y0135635D02*
X0132699Y0135635D01*
X0109580Y0130839D02*
X0102971Y0130839D01*
X0114546Y0172400D02*
X0115409Y0172400D01*
X0113941Y0173999D02*
X0112947Y0173999D01*
X0113279Y0175598D02*
X0111349Y0175598D01*
X0109750Y0177196D02*
X0113074Y0177196D01*
X0113155Y0178795D02*
X0108152Y0178795D01*
X0106553Y0180393D02*
X0113818Y0180393D01*
X0115111Y0181992D02*
X0098998Y0181992D01*
X0100597Y0183590D02*
X0114219Y0183590D01*
X0113448Y0185189D02*
X0102195Y0185189D01*
X0103794Y0186787D02*
X0113074Y0186787D01*
X0113074Y0188386D02*
X0105392Y0188386D01*
X0106991Y0189984D02*
X0113648Y0189984D01*
X0114702Y0191583D02*
X0108589Y0191583D01*
X0110188Y0193181D02*
X0116088Y0193181D01*
X0114733Y0194780D02*
X0111786Y0194780D01*
X0113266Y0196378D02*
X0114161Y0196378D01*
X0114108Y0197977D02*
X0113799Y0197977D01*
X0113799Y0199575D02*
X0114562Y0199575D01*
X0114805Y0201174D02*
X0115707Y0201174D01*
X0116404Y0202772D02*
X0128969Y0202772D01*
X0130041Y0201174D02*
X0130568Y0201174D01*
X0123074Y0201174D02*
X0122674Y0201174D01*
X0122674Y0199575D02*
X0123074Y0199575D01*
X0123074Y0197977D02*
X0122674Y0197977D01*
X0109744Y0207568D02*
X0006674Y0207568D01*
X0006674Y0205969D02*
X0007460Y0205969D01*
X0006924Y0204371D02*
X0006674Y0204371D01*
X0006674Y0202772D02*
X0006924Y0202772D01*
X0006924Y0201174D02*
X0006674Y0201174D01*
X0006674Y0199575D02*
X0006924Y0199575D01*
X0006924Y0197977D02*
X0006674Y0197977D01*
X0006674Y0196378D02*
X0006924Y0196378D01*
X0006924Y0194780D02*
X0006674Y0194780D01*
X0006674Y0193181D02*
X0007802Y0193181D01*
X0006674Y0191583D02*
X0016137Y0191583D01*
X0011857Y0189984D02*
X0006674Y0189984D01*
X0006674Y0188386D02*
X0009762Y0188386D01*
X0008924Y0186787D02*
X0006674Y0186787D01*
X0006674Y0185189D02*
X0008624Y0185189D01*
X0008742Y0183590D02*
X0006674Y0183590D01*
X0006674Y0181992D02*
X0008493Y0181992D01*
X0007076Y0180393D02*
X0006674Y0180393D01*
X0006674Y0178795D02*
X0006924Y0178795D01*
X0006924Y0177196D02*
X0006674Y0177196D01*
X0006674Y0175598D02*
X0006924Y0175598D01*
X0006924Y0173999D02*
X0006674Y0173999D01*
X0006674Y0172400D02*
X0006924Y0172400D01*
X0006924Y0170802D02*
X0006674Y0170802D01*
X0006674Y0169203D02*
X0007196Y0169203D01*
X0006674Y0167605D02*
X0009366Y0167605D01*
X0008704Y0166006D02*
X0006674Y0166006D01*
X0006674Y0164408D02*
X0008624Y0164408D01*
X0008962Y0162809D02*
X0006674Y0162809D01*
X0006674Y0161211D02*
X0009855Y0161211D01*
X0012082Y0159612D02*
X0006674Y0159612D01*
X0006674Y0158014D02*
X0016151Y0158014D01*
X0016304Y0156415D02*
X0006674Y0156415D01*
X0006674Y0154817D02*
X0016137Y0154817D01*
X0016137Y0153218D02*
X0006674Y0153218D01*
X0006674Y0151620D02*
X0016137Y0151620D01*
X0016200Y0150021D02*
X0006674Y0150021D01*
X0006674Y0148423D02*
X0016255Y0148423D01*
X0016137Y0146824D02*
X0006674Y0146824D01*
X0006674Y0145226D02*
X0016137Y0145226D01*
X0016137Y0143627D02*
X0006674Y0143627D01*
X0006674Y0142029D02*
X0016249Y0142029D01*
X0017478Y0140430D02*
X0006674Y0140430D01*
X0006674Y0138832D02*
X0018756Y0138832D01*
X0018749Y0137233D02*
X0006674Y0137233D01*
X0006674Y0135635D02*
X0019160Y0135635D01*
X0020155Y0134036D02*
X0006674Y0134036D01*
X0006674Y0132438D02*
X0022239Y0132438D01*
X0020641Y0130839D02*
X0006674Y0130839D01*
X0006674Y0129241D02*
X0018571Y0129241D01*
X0016319Y0127642D02*
X0006674Y0127642D01*
X0006674Y0126044D02*
X0014720Y0126044D01*
X0013122Y0124445D02*
X0006674Y0124445D01*
X0006674Y0122847D02*
X0011694Y0122847D01*
X0010337Y0121248D02*
X0006674Y0121248D01*
X0006674Y0119650D02*
X0009759Y0119650D01*
X0009759Y0118051D02*
X0006674Y0118051D01*
X0006674Y0116453D02*
X0009759Y0116453D01*
X0009759Y0114854D02*
X0006674Y0114854D01*
X0006674Y0113256D02*
X0010523Y0113256D01*
X0006674Y0111657D02*
X0017584Y0111657D01*
X0017829Y0110059D02*
X0006674Y0110059D01*
X0006674Y0108460D02*
X0017624Y0108460D01*
X0017837Y0106862D02*
X0006674Y0106862D01*
X0006674Y0105263D02*
X0018553Y0105263D01*
X0019074Y0103664D02*
X0006674Y0103664D01*
X0006674Y0102066D02*
X0019074Y0102066D01*
X0019074Y0100467D02*
X0006674Y0100467D01*
X0006674Y0098869D02*
X0019046Y0098869D01*
X0017447Y0097270D02*
X0017149Y0097270D01*
X0011906Y0097270D02*
X0006674Y0097270D01*
X0006674Y0095672D02*
X0010010Y0095672D01*
X0009759Y0094073D02*
X0006674Y0094073D01*
X0006674Y0092475D02*
X0009759Y0092475D01*
X0009759Y0090876D02*
X0006674Y0090876D01*
X0006674Y0089278D02*
X0009902Y0089278D01*
X0011278Y0087679D02*
X0006674Y0087679D01*
X0006674Y0086081D02*
X0012785Y0086081D01*
X0014384Y0084482D02*
X0006674Y0084482D01*
X0006674Y0082884D02*
X0015982Y0082884D01*
X0017581Y0081285D02*
X0006674Y0081285D01*
X0006674Y0079687D02*
X0020027Y0079687D01*
X0024470Y0087679D02*
X0024731Y0087679D01*
X0025846Y0089278D02*
X0026329Y0089278D01*
X0025989Y0090876D02*
X0027928Y0090876D01*
X0029527Y0092475D02*
X0025989Y0092475D01*
X0025989Y0094073D02*
X0031125Y0094073D01*
X0032724Y0095672D02*
X0026867Y0095672D01*
X0027174Y0097270D02*
X0034322Y0097270D01*
X0035921Y0098869D02*
X0027174Y0098869D01*
X0027174Y0100467D02*
X0037519Y0100467D01*
X0039118Y0102066D02*
X0027174Y0102066D01*
X0027174Y0103664D02*
X0040716Y0103664D01*
X0041574Y0105263D02*
X0027695Y0105263D01*
X0028411Y0106862D02*
X0041574Y0106862D01*
X0041574Y0108460D02*
X0028624Y0108460D01*
X0028419Y0110059D02*
X0041574Y0110059D01*
X0041574Y0111657D02*
X0027715Y0111657D01*
X0026049Y0113256D02*
X0041574Y0113256D01*
X0041574Y0114854D02*
X0025989Y0114854D01*
X0025989Y0116453D02*
X0041574Y0116453D01*
X0041574Y0118051D02*
X0025989Y0118051D01*
X0025989Y0119650D02*
X0041574Y0119650D01*
X0041574Y0121248D02*
X0025411Y0121248D01*
X0024103Y0122847D02*
X0041574Y0122847D01*
X0041574Y0124445D02*
X0025702Y0124445D01*
X0027300Y0126044D02*
X0041574Y0126044D01*
X0041574Y0127642D02*
X0028899Y0127642D01*
X0030497Y0129241D02*
X0041574Y0129241D01*
X0041574Y0130839D02*
X0032096Y0130839D01*
X0033694Y0132438D02*
X0041574Y0132438D01*
X0041574Y0134036D02*
X0035293Y0134036D01*
X0036891Y0135635D02*
X0041574Y0135635D01*
X0041574Y0137233D02*
X0038090Y0137233D01*
X0038424Y0138832D02*
X0041574Y0138832D01*
X0041574Y0140430D02*
X0038424Y0140430D01*
X0038424Y0142029D02*
X0041574Y0142029D01*
X0041574Y0143627D02*
X0038424Y0143627D01*
X0038424Y0145226D02*
X0041574Y0145226D01*
X0041574Y0146824D02*
X0038424Y0146824D01*
X0038424Y0148423D02*
X0041574Y0148423D01*
X0041574Y0150021D02*
X0038424Y0150021D01*
X0038424Y0151620D02*
X0041574Y0151620D01*
X0041574Y0153218D02*
X0038424Y0153218D01*
X0038424Y0154817D02*
X0041574Y0154817D01*
X0041574Y0156415D02*
X0038424Y0156415D01*
X0038424Y0158014D02*
X0042191Y0158014D01*
X0043789Y0159612D02*
X0038424Y0159612D01*
X0038424Y0161211D02*
X0045387Y0161211D01*
X0046986Y0162809D02*
X0038424Y0162809D01*
X0038424Y0164408D02*
X0048584Y0164408D01*
X0047610Y0166006D02*
X0038424Y0166006D01*
X0038424Y0167605D02*
X0046011Y0167605D01*
X0042362Y0169203D02*
X0038424Y0169203D01*
X0038424Y0170802D02*
X0040879Y0170802D01*
X0040217Y0172400D02*
X0038424Y0172400D01*
X0038424Y0173999D02*
X0040124Y0173999D01*
X0040449Y0175598D02*
X0038424Y0175598D01*
X0038424Y0177196D02*
X0041322Y0177196D01*
X0043503Y0178795D02*
X0038054Y0178795D01*
X0036803Y0180393D02*
X0055570Y0180393D01*
X0057168Y0181992D02*
X0035205Y0181992D01*
X0033606Y0183590D02*
X0058767Y0183590D01*
X0060365Y0185189D02*
X0032008Y0185189D01*
X0030409Y0186787D02*
X0061964Y0186787D01*
X0063562Y0188386D02*
X0029248Y0188386D01*
X0029611Y0189984D02*
X0065161Y0189984D01*
X0066759Y0191583D02*
X0029611Y0191583D01*
X0029611Y0193181D02*
X0068358Y0193181D01*
X0069956Y0194780D02*
X0029611Y0194780D01*
X0029198Y0196378D02*
X0060188Y0196378D01*
X0058807Y0197977D02*
X0029611Y0197977D01*
X0029611Y0199575D02*
X0058145Y0199575D01*
X0058124Y0201174D02*
X0029611Y0201174D01*
X0029611Y0202772D02*
X0058521Y0202772D01*
X0059497Y0204371D02*
X0029099Y0204371D01*
X0018288Y0205969D02*
X0061925Y0205969D01*
X0065323Y0205969D02*
X0108146Y0205969D01*
X0106547Y0204371D02*
X0092879Y0204371D01*
X0093391Y0202772D02*
X0105749Y0202772D01*
X0105699Y0201174D02*
X0093391Y0201174D01*
X0093391Y0199575D02*
X0105127Y0199575D01*
X0103528Y0197977D02*
X0093391Y0197977D01*
X0092978Y0196378D02*
X0101930Y0196378D01*
X0100331Y0194780D02*
X0093391Y0194780D01*
X0093391Y0193181D02*
X0098733Y0193181D01*
X0097134Y0191583D02*
X0093391Y0191583D01*
X0093391Y0189984D02*
X0095536Y0189984D01*
X0071696Y0196378D02*
X0067060Y0196378D01*
X0052503Y0178795D02*
X0047745Y0178795D01*
X0049926Y0177196D02*
X0050322Y0177196D01*
X0041574Y0092475D02*
X0040982Y0092475D01*
X0041574Y0090876D02*
X0039383Y0090876D01*
X0037785Y0089278D02*
X0041574Y0089278D01*
X0041574Y0087679D02*
X0036186Y0087679D01*
X0034588Y0086081D02*
X0041574Y0086081D01*
X0041574Y0084482D02*
X0032989Y0084482D01*
X0031391Y0082884D02*
X0041574Y0082884D01*
X0041574Y0081285D02*
X0029792Y0081285D01*
X0028194Y0079687D02*
X0041574Y0079687D01*
X0041574Y0078088D02*
X0006674Y0078088D01*
X0006674Y0076490D02*
X0041574Y0076490D01*
X0042101Y0074891D02*
X0006674Y0074891D01*
X0006674Y0073293D02*
X0043574Y0073293D01*
X0045172Y0071694D02*
X0006674Y0071694D01*
X0006674Y0070096D02*
X0046771Y0070096D01*
X0048324Y0068497D02*
X0006674Y0068497D01*
X0006674Y0066899D02*
X0048324Y0066899D01*
X0048324Y0065300D02*
X0006674Y0065300D01*
X0006674Y0063702D02*
X0048324Y0063702D01*
X0058746Y0076490D02*
X0102699Y0076490D01*
X0102699Y0078088D02*
X0065058Y0078088D01*
X0088765Y0041323D02*
X0089636Y0041323D01*
X0097944Y0079687D02*
X0102699Y0079687D01*
X0102699Y0081285D02*
X0099542Y0081285D01*
X0102239Y0082884D02*
X0102699Y0082884D01*
X0122674Y0081285D02*
X0123074Y0081285D01*
X0123074Y0079687D02*
X0122674Y0079687D01*
X0122674Y0078088D02*
X0123074Y0078088D01*
X0123074Y0077545D02*
X0131674Y0077545D01*
X0131674Y0077762D01*
X0131544Y0078586D01*
X0131286Y0079379D01*
X0130907Y0080123D01*
X0130655Y0080470D01*
X0130896Y0080470D01*
X0132699Y0078667D01*
X0132699Y0068522D01*
X0132674Y0068497D01*
X0132674Y0068598D01*
X0131715Y0070914D01*
X0129943Y0072686D01*
X0129328Y0072940D01*
X0129827Y0073302D01*
X0130417Y0073892D01*
X0130907Y0074567D01*
X0131286Y0075310D01*
X0131544Y0076104D01*
X0131674Y0076928D01*
X0131674Y0077145D01*
X0123074Y0077145D01*
X0123074Y0077545D01*
X0129814Y0073293D02*
X0132699Y0073293D01*
X0132699Y0074891D02*
X0131072Y0074891D01*
X0131605Y0076490D02*
X0132699Y0076490D01*
X0132699Y0078088D02*
X0131622Y0078088D01*
X0131680Y0079687D02*
X0131129Y0079687D01*
X0130934Y0071694D02*
X0132699Y0071694D01*
X0132699Y0070096D02*
X0132054Y0070096D01*
X0037322Y0033330D02*
X0031825Y0033330D01*
X0030523Y0034929D02*
X0035921Y0034929D01*
X0035736Y0049315D02*
X0031104Y0049315D01*
X0032597Y0050914D02*
X0036876Y0050914D01*
D19*
X0082749Y0042095D02*
X0082749Y0033095D01*
X0082874Y0032345D01*
X0082749Y0042095D02*
X0107499Y0066845D01*
X0107499Y0121970D01*
X0113124Y0127595D01*
X0122124Y0127595D01*
X0122874Y0127345D01*
M02*
